<svg xmlns="http://www.w3.org/2000/svg" viewBox="0 0 549 748" width="549" height="748"><defs><radialGradient id="liv" gradientUnits="userSpaceOnUse" cx="274" cy="443" r="149"><stop offset="0%" stop-color="#fffaf0"/><stop offset="20%" stop-color="#ffd35e"/><stop offset="55%" stop-color="#e89a1c" stop-opacity="0.8"/><stop offset="100%" stop-color="#c08a14" stop-opacity="0"/></radialGradient></defs><path fill="#724213" fill-rule="evenodd" d="M 243.67,302.83 L 241.84,301.33 L 241.84,299.33 L 240.84,298.33 L 240.67,296.65 L 239.84,295.33 L 239.75,293.33 L 238.84,292.33 L 238.84,290.33 L 237.84,289.33 L 237.78,286.33 L 236.84,285.33 L 236.69,282.33 L 235.84,281.33 L 235.76,277.33 L 234.84,276.33 L 234.84,271.33 L 233.84,270.33 L 233.84,261.33 L 233.18,256.33 L 233.84,251.33 L 233.84,243.33 L 234.84,241.33 L 234.84,237.33 L 235.76,236.33 L 235.84,233.33 L 236.73,232.33 L 236.84,229.33 L 237.84,228.33 L 237.84,226.33 L 238.84,225.33 L 238.84,223.33 L 240.84,220.33 L 240.84,218.33 L 242.84,215.33 L 242.84,214.33 L 243.84,213.33 L 243.84,212.33 L 246.84,208.33 L 247.00,207.09 L 248.84,205.33 L 249.00,204.09 L 250.84,202.33 L 251.00,201.09 L 252.79,199.33 L 253.00,198.09 L 254.84,196.33 L 255.00,195.09 L 257.67,192.59 L 258.00,191.22 L 261.67,187.43 L 261.84,186.33 L 263.67,184.59 L 265.00,182.09 L 267.16,180.33 L 265.84,178.33 L 265.84,176.33 L 264.84,175.33 L 264.84,173.33 L 263.87,172.33 L 263.74,168.33 L 262.91,167.33 L 262.84,156.33 L 263.84,155.33 L 263.84,152.33 L 264.84,151.33 L 264.84,149.33 L 265.84,148.33 L 265.84,146.33 L 267.33,145.33 L 268.33,145.76 L 268.76,145.33 L 268.33,144.91 L 267.33,145.33 L 266.67,144.08 L 265.00,142.58 L 264.76,141.33 L 262.00,138.58 L 261.84,137.33 L 260.84,136.33 L 260.84,135.33 L 259.84,134.33 L 259.84,130.33 L 258.84,128.33 L 258.84,125.33 L 259.84,124.33 L 259.84,121.33 L 260.84,120.33 L 260.84,119.33 L 261.84,118.33 L 261.84,117.33 L 263.84,114.33 L 263.84,113.33 L 264.33,112.84 L 265.33,112.84 L 265.83,113.33 L 265.83,115.33 L 264.91,116.33 L 264.77,121.33 L 264.05,122.33 L 264.02,123.33 L 264.83,124.33 L 264.83,127.33 L 265.83,128.33 L 266.00,130.01 L 267.00,131.59 L 270.33,134.84 L 271.67,134.59 L 271.86,132.33 L 272.84,131.33 L 272.84,128.33 L 273.84,126.33 L 273.76,120.33 L 272.84,119.33 L 272.84,117.33 L 271.84,116.33 L 271.84,114.33 L 270.84,113.33 L 270.84,111.33 L 269.84,110.33 L 269.73,108.33 L 268.84,107.33 L 268.84,105.33 L 267.84,104.33 L 267.84,97.33 L 267.91,96.33 L 268.84,95.33 L 268.84,93.33 L 269.80,92.33 L 269.84,90.33 L 270.84,89.33 L 270.84,87.33 L 271.84,86.33 L 271.84,83.33 L 272.84,81.33 L 272.84,77.33 L 273.72,76.33 L 273.84,72.33 L 274.33,71.84 L 275.33,71.84 L 275.83,72.33 L 275.83,81.33 L 276.83,83.33 L 276.94,88.33 L 277.83,89.33 L 277.83,90.33 L 278.83,91.33 L 278.83,92.33 L 279.83,93.33 L 279.83,94.33 L 280.83,95.33 L 280.83,96.33 L 281.83,97.33 L 281.83,98.33 L 282.83,99.33 L 283.83,103.33 L 284.83,104.33 L 284.83,105.33 L 285.83,106.33 L 285.92,107.67 L 286.72,109.00 L 286.83,111.33 L 287.83,112.33 L 287.83,126.33 L 287.00,127.53 L 286.71,130.33 L 285.83,131.33 L 285.83,132.33 L 284.83,133.33 L 284.83,134.33 L 283.83,135.33 L 283.83,136.33 L 282.83,137.33 L 282.83,138.33 L 280.83,140.33 L 280.83,141.33 L 278.83,144.33 L 278.83,145.33 L 280.83,148.33 L 280.83,150.33 L 281.83,151.33 L 281.97,154.33 L 282.83,155.33 L 282.83,168.33 L 281.83,169.33 L 281.83,172.33 L 280.83,173.33 L 280.67,176.58 L 279.00,177.83 L 277.59,176.00 L 276.83,176.33 L 278.83,178.00 L 279.83,179.33 L 280.00,180.59 L 282.67,183.09 L 284.00,185.59 L 286.67,188.09 L 288.00,190.59 L 290.67,193.09 L 291.00,194.42 L 293.67,197.09 L 295.00,199.59 L 296.67,201.09 L 296.83,202.33 L 298.67,204.09 L 298.83,205.33 L 300.67,207.09 L 301.00,208.59 L 302.83,210.33 L 302.83,211.33 L 303.83,212.33 L 303.83,213.33 L 304.83,214.33 L 304.83,215.33 L 305.83,216.33 L 305.83,217.33 L 306.83,218.33 L 306.83,219.33 L 307.83,220.33 L 307.90,222.33 L 309.83,225.33 L 309.83,227.33 L 310.83,228.33 L 310.83,230.33 L 311.78,231.33 L 311.83,234.33 L 312.76,235.33 L 312.83,239.33 L 313.83,240.33 L 313.87,248.33 L 314.83,249.33 L 314.83,262.33 L 313.83,263.33 L 313.83,270.33 L 312.83,271.33 L 312.83,275.33 L 311.89,276.33 L 311.83,279.33 L 310.96,280.67 L 310.83,283.33 L 309.83,284.33 L 309.83,286.33 L 309.00,287.72 L 308.83,289.33 L 307.83,290.33 L 307.83,292.33 L 306.83,293.33 L 305.83,297.33 L 303.83,300.33 L 303.68,301.67 L 302.33,302.22 L 301.67,301.08 L 300.84,300.67 L 300.67,299.08 L 298.84,297.33 L 298.67,296.08 L 292.84,290.33 L 292.84,289.33 L 293.84,288.33 L 293.84,286.33 L 294.84,285.33 L 294.84,283.33 L 295.84,282.33 L 295.84,279.33 L 296.84,278.33 L 296.84,275.33 L 297.78,274.33 L 297.84,269.33 L 298.84,268.33 L 298.84,261.33 L 299.84,259.33 L 299.75,250.33 L 298.84,249.33 L 298.84,242.33 L 298.69,241.33 L 297.84,240.33 L 297.76,236.33 L 296.84,235.33 L 296.84,232.33 L 295.84,231.33 L 295.84,229.33 L 294.84,228.33 L 293.84,224.33 L 291.84,221.33 L 291.63,219.33 L 289.84,216.33 L 289.84,215.33 L 288.84,214.33 L 288.84,213.33 L 287.00,211.58 L 286.84,210.33 L 285.84,209.33 L 285.84,208.33 L 284.00,206.58 L 283.84,205.33 L 282.00,203.58 L 281.84,202.33 L 280.00,200.58 L 279.84,199.33 L 278.00,197.58 L 277.67,196.08 L 275.00,193.58 L 273.76,190.33 L 271.84,188.67 L 271.84,187.33 L 270.33,185.78 L 269.83,186.33 L 270.83,187.00 L 270.83,188.33 L 272.99,190.00 L 272.83,192.33 L 270.87,194.33 L 270.83,195.33 L 269.83,196.33 L 269.83,197.33 L 267.00,200.17 L 266.83,201.33 L 265.83,202.33 L 265.80,203.33 L 264.00,205.08 L 263.83,206.33 L 260.83,210.33 L 260.83,211.33 L 259.83,212.33 L 259.83,213.33 L 258.83,214.33 L 258.83,215.33 L 257.83,216.33 L 257.83,217.33 L 256.83,218.33 L 256.83,219.33 L 254.83,222.33 L 254.83,224.33 L 252.83,227.33 L 252.83,229.33 L 251.83,230.33 L 251.83,232.33 L 250.90,234.00 L 250.83,236.33 L 249.83,237.33 L 249.83,241.33 L 248.83,242.33 L 248.83,250.33 L 247.97,252.33 L 247.83,259.33 L 248.83,262.33 L 248.83,269.33 L 249.78,271.00 L 249.94,276.33 L 250.83,277.33 L 250.83,280.33 L 251.83,281.33 L 251.83,284.33 L 252.83,285.33 L 252.83,287.33 L 253.83,288.33 L 253.83,289.33 L 247.00,296.08 L 246.83,297.33 L 243.83,301.33 L 243.67,302.83 Z M 279.62,119.67 L 279.84,117.33 L 280.84,115.33 L 280.84,107.33 L 279.84,106.33 L 279.76,103.33 L 278.84,102.33 L 278.84,101.33 L 277.84,100.33 L 277.84,99.33 L 276.84,98.33 L 276.84,97.33 L 275.84,96.33 L 275.84,95.33 L 274.84,94.33 L 274.84,93.33 L 274.33,92.83 L 273.83,93.33 L 273.83,96.33 L 272.88,97.33 L 272.83,102.33 L 273.83,103.33 L 273.83,106.33 L 274.83,107.33 L 274.83,108.33 L 275.83,109.33 L 275.83,110.33 L 276.83,111.33 L 276.83,113.33 L 278.83,116.33 L 278.83,119.33 L 279.33,119.89 L 279.62,119.67 Z M 273.59,168.67 L 273.84,167.33 L 274.84,166.33 L 274.72,156.33 L 273.84,155.33 L 273.84,153.33 L 272.84,152.33 L 272.84,151.33 L 271.84,150.67 L 271.84,149.33 L 269.33,146.83 L 268.83,147.33 L 269.83,148.00 L 269.98,149.33 L 271.83,151.00 L 271.89,153.33 L 272.52,154.33 L 271.83,155.33 L 271.83,164.33 L 272.83,165.33 L 272.83,168.33 L 273.59,168.67 Z M 276.59,174.67 L 276.84,174.33 L 275.84,173.67 L 275.84,172.33 L 274.84,171.67 L 274.84,170.33 L 274.33,169.83 L 273.83,170.33 L 273.83,171.33 L 274.83,172.00 L 275.00,173.59 L 276.59,174.67 Z M 269.60,184.67 L 269.84,184.33 L 268.84,183.67 L 268.84,182.33 L 268.33,181.83 L 267.83,182.33 L 267.83,183.33 L 269.08,184.67 L 269.60,184.67 Z M 274.33,675.83 L 273.33,675.83 L 272.84,675.33 L 272.80,670.33 L 271.84,669.33 L 271.77,660.33 L 270.95,658.33 L 270.84,655.33 L 268.93,653.33 L 267.84,649.33 L 266.84,648.33 L 266.84,639.33 L 267.84,638.33 L 267.84,635.33 L 268.84,634.33 L 268.84,633.33 L 269.67,632.33 L 269.84,630.33 L 267.00,627.44 L 266.67,626.08 L 264.84,624.33 L 264.67,623.08 L 262.84,621.33 L 262.84,620.33 L 261.84,619.33 L 261.84,618.33 L 260.84,617.33 L 260.84,616.33 L 258.84,613.33 L 258.84,611.33 L 257.84,610.33 L 257.84,608.33 L 256.84,607.33 L 256.84,603.33 L 256.33,602.83 L 253.83,605.33 L 253.83,607.33 L 252.83,608.33 L 252.81,616.33 L 251.83,617.33 L 251.83,618.33 L 250.83,619.33 L 250.67,620.58 L 249.33,620.83 L 248.84,620.33 L 248.84,603.33 L 249.84,602.33 L 250.00,601.09 L 251.67,599.18 L 254.09,597.00 L 256.84,595.33 L 256.93,590.33 L 257.84,589.33 L 257.84,586.33 L 258.84,585.33 L 258.84,583.33 L 259.84,582.33 L 260.10,580.33 L 262.84,576.33 L 262.84,575.33 L 263.84,574.33 L 263.84,573.33 L 265.84,570.33 L 265.84,569.33 L 264.84,568.33 L 264.67,567.08 L 262.00,564.58 L 261.67,563.08 L 258.00,559.58 L 257.84,558.33 L 256.00,556.58 L 255.84,555.33 L 254.00,553.58 L 251.84,550.33 L 251.84,549.33 L 250.84,548.33 L 250.84,547.33 L 249.84,546.33 L 249.78,545.33 L 248.84,544.33 L 248.84,543.33 L 246.84,540.33 L 245.84,536.33 L 244.84,535.33 L 244.84,533.33 L 243.97,532.00 L 243.84,529.33 L 242.84,528.33 L 242.84,524.33 L 241.84,523.33 L 241.84,515.33 L 240.84,513.33 L 240.84,507.33 L 241.79,505.33 L 241.84,496.33 L 242.84,494.33 L 242.84,490.33 L 243.84,489.33 L 243.84,486.33 L 244.84,485.33 L 244.84,483.33 L 245.74,482.33 L 246.06,479.33 L 246.84,478.33 L 246.84,477.33 L 247.84,476.33 L 248.84,472.33 L 250.84,469.33 L 251.84,465.33 L 252.84,464.33 L 252.84,463.33 L 251.84,462.33 L 251.84,452.33 L 252.67,450.08 L 251.33,449.83 L 250.33,450.68 L 248.33,450.83 L 247.33,451.83 L 246.33,451.83 L 245.33,452.83 L 244.33,452.88 L 238.33,456.68 L 237.33,456.83 L 236.33,457.83 L 235.33,457.83 L 234.33,458.83 L 233.33,458.83 L 232.33,459.83 L 231.33,459.83 L 227.33,462.83 L 226.33,462.83 L 225.33,463.83 L 224.08,464.00 L 218.00,470.08 L 217.67,471.58 L 215.00,474.08 L 214.67,475.58 L 212.83,477.33 L 212.67,478.58 L 210.83,480.33 L 210.83,481.33 L 209.83,482.33 L 209.83,483.33 L 208.83,484.33 L 208.83,485.33 L 207.83,486.33 L 207.83,487.33 L 206.83,488.33 L 206.83,489.33 L 205.91,490.33 L 205.83,492.33 L 204.83,493.33 L 204.83,495.33 L 203.83,496.33 L 203.83,498.33 L 202.83,499.33 L 202.83,502.33 L 201.93,503.33 L 201.83,508.33 L 200.94,509.33 L 200.83,510.33 L 200.83,517.33 L 201.83,519.33 L 201.83,535.33 L 202.83,536.33 L 202.83,538.33 L 203.83,539.33 L 203.83,540.33 L 205.83,543.33 L 205.83,545.33 L 206.83,546.33 L 207.00,547.59 L 210.33,550.84 L 211.33,550.84 L 212.33,551.84 L 214.33,551.84 L 215.33,552.77 L 216.58,553.00 L 219.00,556.59 L 220.83,558.33 L 220.83,562.33 L 220.33,562.83 L 219.33,562.83 L 218.84,562.33 L 218.84,561.33 L 217.84,560.33 L 217.84,559.33 L 216.59,558.00 L 215.33,557.66 L 213.33,555.83 L 212.83,556.33 L 213.00,559.33 L 213.83,560.33 L 213.83,565.33 L 212.83,566.33 L 212.83,568.33 L 213.71,569.33 L 213.83,571.33 L 214.83,572.33 L 214.83,577.33 L 213.58,578.67 L 211.83,579.33 L 211.83,582.33 L 210.83,583.33 L 210.83,585.33 L 209.62,586.67 L 208.84,586.33 L 208.84,574.33 L 209.80,573.33 L 209.84,559.33 L 208.84,558.33 L 208.84,557.33 L 207.84,556.33 L 207.67,555.08 L 204.00,551.58 L 203.84,550.33 L 202.00,548.58 L 201.67,547.08 L 199.84,545.33 L 199.62,543.33 L 198.33,541.83 L 197.83,542.33 L 197.83,544.33 L 195.83,547.33 L 195.83,548.33 L 194.83,549.33 L 194.83,550.33 L 193.00,552.14 L 192.67,553.58 L 190.58,555.67 L 188.08,557.00 L 186.00,559.08 L 185.83,560.33 L 184.83,561.33 L 184.83,563.33 L 183.83,564.33 L 183.83,573.33 L 184.83,574.33 L 184.83,576.33 L 185.83,577.33 L 185.83,579.33 L 186.81,580.33 L 186.83,585.33 L 187.44,587.33 L 186.83,589.33 L 186.74,592.33 L 185.83,593.33 L 185.83,594.33 L 184.83,595.33 L 184.83,597.33 L 183.87,598.33 L 183.67,600.58 L 182.33,600.83 L 181.84,600.33 L 181.84,598.33 L 182.84,597.33 L 182.84,595.33 L 183.67,594.07 L 183.84,592.33 L 184.84,591.33 L 184.84,586.33 L 184.01,585.33 L 183.45,581.67 L 182.00,582.08 L 181.67,583.58 L 179.00,586.08 L 178.67,587.58 L 176.83,589.33 L 176.67,590.58 L 175.33,590.83 L 174.84,590.33 L 174.94,589.00 L 175.84,587.33 L 175.84,585.33 L 177.67,583.59 L 177.86,582.33 L 179.67,580.59 L 179.84,579.33 L 180.75,578.33 L 180.84,573.33 L 179.84,572.33 L 179.84,562.33 L 179.33,561.83 L 178.33,561.83 L 177.33,562.83 L 175.33,562.83 L 174.33,563.83 L 173.33,563.83 L 170.33,565.83 L 169.33,565.86 L 165.00,570.08 L 163.94,572.00 L 163.83,573.33 L 162.94,574.33 L 162.83,579.33 L 161.97,580.33 L 160.83,583.33 L 159.58,584.67 L 157.00,586.08 L 156.83,587.33 L 155.83,588.33 L 155.83,589.33 L 153.58,591.67 L 152.33,591.83 L 151.84,591.33 L 151.84,590.33 L 152.84,589.33 L 152.84,588.33 L 153.84,587.33 L 154.00,586.09 L 156.09,584.00 L 158.50,582.67 L 160.84,579.33 L 160.84,572.33 L 161.84,571.33 L 161.84,569.33 L 162.84,568.33 L 163.00,567.09 L 170.09,560.00 L 171.33,559.84 L 173.88,558.00 L 175.33,557.84 L 176.33,556.84 L 177.33,556.84 L 178.33,555.84 L 179.33,555.84 L 180.33,554.84 L 181.59,554.67 L 185.67,550.59 L 186.00,549.33 L 188.67,546.38 L 188.84,545.33 L 189.84,544.33 L 190.84,540.33 L 191.84,539.33 L 191.84,536.33 L 192.84,535.33 L 192.84,525.33 L 191.84,523.33 L 191.84,504.33 L 192.84,503.33 L 192.84,502.33 L 192.33,501.83 L 189.58,504.67 L 188.33,504.83 L 186.40,506.67 L 185.33,506.83 L 184.33,507.83 L 183.33,507.83 L 180.58,510.67 L 179.33,510.83 L 177.58,512.67 L 176.15,513.00 L 172.00,517.08 L 167.83,523.33 L 167.83,524.33 L 166.83,525.33 L 166.83,532.33 L 164.83,535.33 L 164.83,536.33 L 162.37,538.67 L 161.08,539.00 L 158.00,542.08 L 157.33,543.83 L 156.33,543.83 L 155.84,543.33 L 156.06,541.67 L 157.00,540.09 L 162.84,534.33 L 162.84,523.33 L 163.84,522.33 L 163.84,520.33 L 165.84,517.33 L 165.33,516.83 L 164.33,516.83 L 163.33,517.83 L 157.33,517.93 L 156.33,518.80 L 148.33,518.83 L 147.33,519.68 L 146.01,520.00 L 142.67,524.64 L 137.08,529.33 L 131.90,537.67 L 128.33,539.00 L 127.33,538.12 L 126.00,539.08 L 125.83,540.33 L 124.83,541.33 L 124.83,542.33 L 123.83,543.33 L 123.83,548.33 L 122.83,549.33 L 122.83,550.33 L 123.82,551.33 L 123.83,553.33 L 124.83,554.33 L 124.83,556.33 L 125.83,557.33 L 125.83,563.33 L 124.83,564.33 L 124.83,566.33 L 123.94,567.33 L 122.79,570.33 L 121.83,571.33 L 121.83,572.33 L 120.83,573.33 L 120.83,574.33 L 119.00,576.08 L 118.33,577.83 L 117.33,577.83 L 116.84,577.33 L 116.84,575.33 L 118.84,572.33 L 118.84,571.33 L 120.84,569.33 L 120.90,568.33 L 122.57,566.33 L 122.84,565.33 L 122.84,559.33 L 121.84,558.33 L 121.67,556.20 L 120.33,554.98 L 119.83,556.33 L 118.58,557.67 L 116.18,558.00 L 115.67,559.58 L 113.58,561.67 L 112.00,562.08 L 111.83,563.33 L 110.83,564.33 L 110.83,565.33 L 110.33,565.83 L 109.00,565.58 L 108.84,564.33 L 109.75,562.67 L 109.84,561.33 L 110.84,560.33 L 111.00,559.09 L 115.09,555.00 L 116.36,554.67 L 118.84,551.33 L 118.84,543.33 L 119.76,541.67 L 119.84,539.33 L 120.84,538.33 L 120.87,537.00 L 121.78,536.33 L 121.33,535.89 L 120.58,536.67 L 116.67,536.94 L 115.33,537.83 L 107.33,537.83 L 106.33,538.83 L 105.33,538.83 L 102.08,541.00 L 100.33,542.83 L 99.33,542.83 L 98.33,543.83 L 97.08,544.00 L 94.58,546.67 L 93.22,547.00 L 90.83,549.33 L 90.83,550.33 L 89.83,551.33 L 89.83,556.33 L 88.96,557.33 L 88.67,559.58 L 84.33,563.70 L 83.33,563.83 L 82.33,564.81 L 81.33,564.83 L 80.33,565.83 L 79.33,565.83 L 76.33,568.83 L 74.33,568.83 L 73.84,568.33 L 73.84,567.33 L 78.09,563.00 L 80.33,562.84 L 81.33,561.84 L 82.33,561.84 L 83.33,560.84 L 84.33,560.75 L 85.67,559.59 L 85.84,558.33 L 86.84,557.33 L 86.84,555.33 L 87.78,553.67 L 87.84,551.33 L 87.33,550.83 L 86.33,550.83 L 85.33,551.83 L 84.33,551.83 L 83.01,550.67 L 83.00,550.09 L 84.59,549.67 L 86.33,547.84 L 88.59,547.67 L 93.24,543.00 L 94.59,542.67 L 99.09,538.00 L 100.33,537.77 L 101.84,536.33 L 101.33,535.83 L 100.33,535.83 L 99.33,536.79 L 98.33,535.90 L 97.33,535.83 L 96.33,536.83 L 95.09,536.67 L 95.13,535.67 L 97.09,534.00 L 98.33,533.84 L 99.33,532.84 L 104.33,532.77 L 105.33,531.84 L 110.33,531.84 L 112.33,532.78 L 113.33,532.76 L 115.33,531.84 L 117.33,531.84 L 118.33,530.84 L 120.33,530.84 L 121.33,529.84 L 122.59,529.67 L 124.67,527.59 L 126.84,523.33 L 130.09,519.00 L 133.33,516.84 L 134.33,516.84 L 135.33,515.84 L 136.33,515.79 L 137.33,514.84 L 138.33,514.84 L 139.33,513.84 L 141.33,513.84 L 142.33,512.84 L 143.67,512.73 L 145.33,511.84 L 148.33,511.84 L 149.33,510.84 L 157.33,510.84 L 158.33,509.84 L 162.33,509.84 L 163.33,508.84 L 165.33,508.78 L 168.33,506.84 L 169.33,506.84 L 178.59,500.67 L 182.09,497.00 L 184.55,495.33 L 185.00,494.09 L 190.67,488.59 L 191.00,487.09 L 193.67,484.59 L 193.84,483.33 L 194.84,482.33 L 194.84,481.33 L 195.84,480.33 L 195.84,479.33 L 196.84,478.33 L 196.84,477.33 L 197.84,476.33 L 197.84,475.33 L 199.84,473.33 L 199.33,472.83 L 198.33,472.88 L 197.33,473.83 L 194.33,473.97 L 193.33,474.83 L 184.33,474.83 L 183.33,475.83 L 162.33,475.83 L 161.33,476.83 L 159.33,476.83 L 158.33,477.83 L 157.33,477.83 L 156.33,478.83 L 155.33,478.83 L 154.33,479.83 L 153.33,479.83 L 147.00,486.17 L 146.67,487.58 L 144.00,490.08 L 143.83,492.33 L 142.88,494.00 L 142.74,497.33 L 141.83,498.33 L 141.60,500.00 L 140.67,501.58 L 137.00,505.08 L 135.67,508.58 L 134.06,508.67 L 133.84,506.33 L 134.84,505.33 L 134.84,503.33 L 135.75,502.33 L 136.00,501.28 L 137.77,500.33 L 137.84,496.33 L 138.84,495.33 L 138.84,492.33 L 139.45,491.33 L 138.33,491.10 L 137.33,491.83 L 136.33,491.83 L 135.33,492.83 L 131.33,492.90 L 128.33,494.83 L 127.08,495.00 L 123.33,498.83 L 122.80,498.33 L 122.84,497.33 L 124.80,495.33 L 125.00,494.09 L 127.33,491.84 L 129.33,491.84 L 131.33,489.92 L 135.00,489.68 L 136.33,488.84 L 137.33,488.84 L 138.33,487.84 L 139.59,487.67 L 141.67,485.59 L 142.01,484.33 L 143.84,482.33 L 143.84,481.33 L 144.84,480.33 L 144.84,479.33 L 147.67,476.38 L 148.00,475.09 L 149.33,473.84 L 150.59,473.67 L 152.67,471.46 L 152.46,471.00 L 150.33,470.83 L 147.33,468.83 L 145.33,468.83 L 144.33,467.83 L 143.33,467.83 L 140.09,465.67 L 138.33,463.89 L 137.33,463.83 L 136.33,462.83 L 135.33,462.83 L 134.33,463.83 L 132.33,463.83 L 131.33,464.83 L 130.33,464.83 L 129.33,465.83 L 128.33,465.83 L 127.33,466.71 L 125.33,466.83 L 123.00,469.08 L 122.67,470.58 L 120.67,471.69 L 118.33,471.83 L 117.33,472.83 L 115.33,472.83 L 114.84,472.33 L 115.00,471.09 L 116.59,470.67 L 119.67,467.59 L 121.09,465.00 L 123.33,463.84 L 125.33,463.84 L 127.84,461.33 L 127.33,460.83 L 126.33,460.83 L 125.33,459.83 L 123.33,459.83 L 120.33,457.87 L 113.33,457.83 L 110.33,459.83 L 109.08,460.00 L 103.00,466.08 L 101.58,468.67 L 100.33,469.70 L 99.08,470.00 L 97.33,471.73 L 96.08,472.00 L 91.33,476.83 L 90.00,476.58 L 89.84,475.33 L 91.67,473.59 L 91.59,473.00 L 89.33,472.83 L 88.33,473.83 L 87.33,473.83 L 86.84,473.33 L 86.84,472.33 L 87.67,471.18 L 89.33,470.84 L 90.33,469.84 L 94.33,469.84 L 95.33,468.84 L 97.59,468.67 L 100.54,465.33 L 101.84,463.33 L 102.00,462.09 L 107.09,457.00 L 108.33,456.78 L 109.33,455.84 L 110.67,455.41 L 109.67,454.87 L 105.33,454.83 L 102.33,456.83 L 101.00,456.58 L 101.01,456.00 L 104.09,453.00 L 105.33,452.84 L 106.33,451.84 L 108.33,451.77 L 109.33,450.84 L 112.33,450.84 L 113.33,451.84 L 115.33,451.84 L 116.33,452.84 L 118.33,452.84 L 119.33,453.75 L 128.33,453.84 L 129.33,453.77 L 130.33,452.98 L 132.33,452.84 L 134.59,451.67 L 136.84,449.33 L 136.84,448.33 L 137.84,447.33 L 138.00,446.09 L 139.73,444.33 L 139.84,443.33 L 140.84,442.33 L 140.84,441.33 L 141.84,440.33 L 141.84,439.33 L 143.67,437.51 L 143.84,436.33 L 145.67,434.59 L 147.00,432.09 L 153.09,426.00 L 155.59,424.67 L 157.33,422.84 L 158.59,422.67 L 160.84,420.33 L 160.33,419.83 L 156.33,419.83 L 155.33,418.83 L 153.33,418.83 L 152.33,417.83 L 150.33,417.83 L 149.33,416.83 L 148.33,416.83 L 147.33,415.98 L 145.33,415.83 L 144.33,414.83 L 143.33,414.83 L 142.33,413.83 L 141.33,413.83 L 140.33,412.83 L 139.33,412.73 L 137.33,410.83 L 136.33,410.83 L 134.44,409.00 L 133.09,408.67 L 131.46,407.00 L 130.09,406.67 L 127.59,404.00 L 126.09,403.67 L 118.59,396.00 L 117.33,395.83 L 116.33,394.83 L 115.33,394.83 L 114.33,394.09 L 113.33,394.03 L 112.33,394.83 L 106.33,394.83 L 105.33,395.83 L 104.33,395.89 L 103.33,396.83 L 102.33,396.83 L 101.33,397.83 L 99.33,397.86 L 98.33,398.83 L 96.33,398.83 L 95.33,398.00 L 93.33,397.83 L 92.33,396.83 L 91.33,396.83 L 89.84,395.33 L 89.84,394.33 L 90.33,393.84 L 96.33,393.84 L 97.33,392.84 L 98.67,392.59 L 97.59,391.00 L 96.33,390.83 L 95.33,389.83 L 91.33,389.83 L 85.33,393.83 L 79.33,393.83 L 78.33,392.83 L 75.33,392.71 L 74.33,391.83 L 72.33,391.83 L 71.84,391.33 L 72.09,390.00 L 73.33,389.80 L 74.33,388.84 L 75.33,388.84 L 76.33,387.84 L 79.33,387.84 L 81.33,388.84 L 83.33,388.84 L 84.33,387.84 L 85.33,387.78 L 87.33,385.84 L 88.33,385.84 L 89.33,384.84 L 90.67,384.59 L 90.67,384.08 L 88.84,382.33 L 91.33,380.84 L 92.33,380.84 L 93.33,381.70 L 95.33,381.84 L 98.33,383.84 L 100.33,383.84 L 101.33,384.84 L 107.33,384.84 L 108.67,383.98 L 111.33,383.84 L 112.33,382.84 L 113.59,382.67 L 128.09,368.00 L 129.33,367.84 L 132.09,365.00 L 133.33,364.84 L 134.33,363.84 L 135.33,363.78 L 137.33,361.84 L 138.33,361.84 L 139.33,360.84 L 140.33,360.84 L 141.33,359.84 L 142.33,359.84 L 143.33,358.84 L 145.33,358.84 L 146.33,357.84 L 147.67,357.72 L 149.33,356.84 L 151.33,356.75 L 152.33,355.84 L 155.33,355.84 L 156.33,354.84 L 160.33,354.84 L 162.33,353.84 L 178.33,353.84 L 179.33,354.71 L 184.33,354.84 L 185.33,355.71 L 188.33,355.84 L 189.33,356.84 L 191.33,356.84 L 193.00,357.74 L 194.33,357.84 L 195.33,358.84 L 197.33,358.84 L 198.33,359.84 L 199.33,359.84 L 200.33,360.84 L 201.33,360.84 L 202.33,361.84 L 203.33,361.84 L 204.33,362.84 L 205.33,362.84 L 208.33,364.84 L 209.33,364.84 L 213.33,367.84 L 214.33,367.84 L 215.33,368.84 L 216.33,368.84 L 218.08,370.67 L 219.58,371.00 L 221.33,372.84 L 222.33,372.84 L 225.33,374.84 L 227.33,375.15 L 230.00,371.09 L 231.84,369.33 L 231.84,368.33 L 233.72,366.33 L 233.84,365.33 L 234.84,364.33 L 234.84,363.33 L 235.84,362.33 L 235.67,360.72 L 234.84,359.33 L 234.64,354.33 L 234.84,348.33 L 235.77,347.33 L 235.73,346.33 L 234.84,345.33 L 234.84,331.33 L 235.84,329.33 L 235.84,326.33 L 236.84,324.33 L 236.84,322.33 L 237.84,321.33 L 237.84,320.33 L 238.59,319.33 L 239.00,316.72 L 239.84,315.33 L 239.84,313.33 L 240.84,312.33 L 240.84,310.33 L 241.84,309.33 L 241.84,307.33 L 243.84,304.33 L 243.84,303.00 L 245.67,301.49 L 246.00,300.01 L 247.80,298.33 L 248.00,297.09 L 258.09,287.00 L 259.33,286.68 L 261.33,284.84 L 262.33,284.84 L 263.33,283.84 L 264.33,283.84 L 265.33,282.84 L 266.33,282.84 L 267.33,282.02 L 269.33,281.84 L 270.33,280.84 L 271.33,280.84 L 273.33,278.84 L 274.79,279.00 L 276.33,280.84 L 277.33,280.84 L 278.33,281.84 L 279.33,281.84 L 280.33,282.84 L 281.33,282.84 L 282.33,283.84 L 283.33,283.84 L 285.33,285.84 L 286.58,286.00 L 296.67,296.09 L 296.94,297.33 L 298.00,298.59 L 300.83,301.00 L 300.83,302.33 L 302.67,304.09 L 302.83,305.33 L 303.83,306.33 L 303.83,307.33 L 304.83,308.33 L 304.83,310.33 L 305.83,311.33 L 305.83,313.33 L 306.83,314.33 L 306.83,317.33 L 307.83,318.33 L 307.83,322.33 L 308.83,323.33 L 308.83,336.33 L 307.83,337.33 L 307.83,342.33 L 306.83,344.33 L 306.83,346.33 L 305.87,347.33 L 305.83,349.33 L 304.93,350.33 L 304.83,352.33 L 303.83,353.33 L 303.83,354.33 L 302.98,355.33 L 302.83,357.67 L 301.83,358.33 L 301.83,359.67 L 300.83,360.33 L 300.91,361.67 L 299.83,362.33 L 299.83,363.33 L 298.83,364.33 L 298.83,365.33 L 297.83,366.33 L 297.83,367.33 L 294.83,371.33 L 294.67,372.58 L 293.00,374.08 L 291.67,376.58 L 290.00,378.08 L 289.67,379.58 L 284.83,384.33 L 286.63,386.33 L 287.00,387.59 L 296.33,396.84 L 300.09,393.00 L 301.43,392.67 L 305.09,389.00 L 306.52,388.67 L 310.09,385.00 L 312.84,383.33 L 312.84,382.33 L 305.84,372.33 L 305.84,371.33 L 304.84,370.33 L 304.84,369.33 L 303.84,368.33 L 303.84,367.33 L 302.84,366.33 L 302.84,365.33 L 300.84,362.33 L 301.80,361.33 L 301.84,360.00 L 302.84,359.33 L 302.84,358.00 L 303.84,357.33 L 303.84,356.33 L 304.84,355.33 L 304.84,354.33 L 305.84,353.33 L 305.84,351.33 L 306.84,350.33 L 306.84,348.33 L 307.84,347.33 L 307.84,344.33 L 308.33,343.84 L 309.33,343.84 L 309.83,344.33 L 309.83,347.33 L 310.83,348.33 L 310.83,350.33 L 311.74,352.00 L 311.83,353.33 L 312.83,354.33 L 312.83,356.33 L 313.83,357.33 L 313.83,359.33 L 314.83,360.33 L 314.83,362.33 L 315.83,363.33 L 315.83,365.33 L 316.83,366.33 L 316.83,367.33 L 317.83,368.33 L 317.83,369.33 L 318.83,370.33 L 318.83,371.33 L 322.33,375.84 L 323.33,375.84 L 327.33,372.84 L 328.33,372.64 L 330.33,370.84 L 331.33,370.80 L 333.09,369.00 L 334.33,368.84 L 336.09,367.00 L 337.33,366.84 L 341.33,363.84 L 342.33,363.84 L 343.33,362.84 L 344.33,362.84 L 345.33,361.84 L 346.33,361.84 L 347.33,360.84 L 348.33,360.84 L 349.33,359.84 L 350.33,359.84 L 351.33,358.84 L 352.33,358.84 L 353.33,357.84 L 355.33,357.84 L 356.33,356.86 L 358.33,356.84 L 360.33,355.84 L 362.33,355.84 L 364.00,354.90 L 368.33,354.84 L 369.33,353.84 L 388.33,353.84 L 389.33,354.84 L 393.33,354.84 L 394.33,355.72 L 397.33,355.84 L 398.33,356.84 L 400.33,356.84 L 401.33,357.75 L 403.33,357.84 L 406.33,359.84 L 407.33,359.84 L 408.33,360.79 L 409.33,360.84 L 412.33,362.84 L 413.33,362.84 L 414.33,363.84 L 415.33,363.84 L 417.08,365.67 L 418.33,365.96 L 419.58,367.00 L 422.08,369.67 L 423.58,370.00 L 436.08,382.67 L 437.33,382.84 L 438.33,383.84 L 441.33,383.84 L 442.33,384.84 L 445.33,384.84 L 446.33,383.84 L 450.33,382.84 L 451.33,381.84 L 453.33,381.84 L 454.33,380.91 L 456.33,380.84 L 458.83,382.33 L 457.83,383.33 L 458.33,384.40 L 460.33,384.84 L 464.33,387.54 L 467.33,387.84 L 468.33,386.84 L 471.33,386.84 L 472.33,387.84 L 474.33,387.84 L 475.33,388.84 L 476.33,388.84 L 476.83,389.33 L 476.83,390.33 L 476.33,390.83 L 474.33,390.94 L 473.33,391.83 L 470.33,391.83 L 469.33,392.83 L 466.67,392.97 L 465.33,393.83 L 464.33,392.92 L 462.33,392.83 L 459.33,390.83 L 458.33,390.83 L 456.33,388.83 L 453.33,388.83 L 452.33,389.83 L 450.33,389.83 L 449.83,390.33 L 452.33,392.84 L 458.33,392.84 L 458.87,393.33 L 458.83,394.33 L 457.58,395.67 L 456.33,395.83 L 454.58,397.67 L 453.33,397.83 L 452.33,398.63 L 451.33,397.83 L 449.33,397.83 L 448.33,396.83 L 446.33,396.66 L 445.33,395.83 L 444.33,395.83 L 443.33,394.83 L 442.33,394.83 L 441.33,393.92 L 432.33,393.98 L 423.58,402.67 L 422.31,403.00 L 418.58,406.67 L 417.33,406.83 L 415.58,408.67 L 414.19,409.00 L 412.33,410.83 L 411.33,410.83 L 410.33,411.83 L 409.33,411.83 L 407.58,413.67 L 406.33,413.83 L 405.33,414.82 L 403.33,414.95 L 402.33,415.83 L 401.33,415.83 L 400.33,416.83 L 398.33,417.03 L 397.33,417.83 L 395.69,418.00 L 394.33,418.83 L 392.33,418.83 L 391.33,419.83 L 390.33,419.83 L 389.83,420.33 L 391.58,421.00 L 394.33,423.84 L 395.58,424.00 L 403.67,432.09 L 404.00,433.59 L 406.67,436.09 L 406.89,437.33 L 408.83,439.33 L 408.83,440.33 L 409.83,441.33 L 410.00,442.52 L 411.83,444.33 L 411.83,445.33 L 412.83,446.33 L 413.00,447.59 L 416.13,450.67 L 420.33,451.84 L 421.33,452.76 L 424.33,452.84 L 425.33,453.52 L 426.33,452.84 L 429.33,452.63 L 430.33,451.84 L 432.33,451.84 L 433.33,450.84 L 440.33,450.84 L 441.33,451.84 L 443.33,451.84 L 444.33,452.84 L 446.33,452.84 L 447.33,453.84 L 448.48,454.00 L 451.67,457.09 L 451.67,457.58 L 450.33,457.83 L 449.33,456.83 L 448.33,456.83 L 445.33,454.83 L 441.33,454.83 L 440.83,455.33 L 443.58,457.00 L 445.66,459.00 L 449.67,463.09 L 450.00,464.59 L 452.08,466.67 L 453.33,466.84 L 454.33,467.84 L 455.33,467.84 L 456.33,468.84 L 460.33,468.84 L 461.33,469.84 L 462.33,469.84 L 462.83,470.33 L 462.33,471.95 L 459.33,471.83 L 458.33,470.83 L 454.33,470.83 L 451.59,468.00 L 450.09,467.67 L 445.00,462.58 L 444.52,461.33 L 443.09,460.67 L 440.33,457.90 L 439.33,457.83 L 438.33,456.83 L 432.33,456.83 L 431.33,457.83 L 429.33,457.83 L 428.33,458.83 L 425.33,458.83 L 424.33,459.83 L 422.94,460.33 L 425.58,462.00 L 428.33,464.84 L 429.33,464.84 L 430.33,465.84 L 431.58,466.00 L 431.83,467.33 L 430.08,468.00 L 430.00,468.59 L 431.33,469.84 L 432.33,469.84 L 434.00,470.77 L 436.58,471.00 L 436.83,472.33 L 436.33,472.83 L 432.33,472.83 L 431.33,471.83 L 430.02,471.67 L 427.47,468.00 L 426.09,467.67 L 423.59,465.00 L 422.09,464.67 L 420.33,462.83 L 419.33,462.83 L 416.33,460.83 L 415.33,460.83 L 414.33,461.83 L 413.33,461.83 L 411.58,463.67 L 410.33,463.83 L 408.58,465.67 L 405.33,467.83 L 404.33,467.83 L 403.33,468.83 L 402.33,468.83 L 399.33,470.83 L 397.98,471.00 L 397.63,471.33 L 397.98,471.67 L 399.58,472.00 L 404.67,477.09 L 406.83,480.33 L 407.00,481.59 L 410.08,484.67 L 411.33,484.84 L 412.33,485.84 L 415.33,485.84 L 416.33,486.84 L 418.33,486.84 L 420.33,488.84 L 421.33,488.84 L 422.33,489.84 L 424.67,489.93 L 426.33,490.84 L 429.67,494.09 L 429.83,495.33 L 431.83,497.33 L 431.33,497.83 L 429.09,497.67 L 428.67,496.08 L 424.33,491.95 L 420.33,491.83 L 417.33,489.83 L 413.33,489.83 L 412.33,489.00 L 411.08,489.00 L 410.83,491.33 L 411.83,492.33 L 411.83,498.33 L 416.83,504.33 L 417.83,506.33 L 417.83,507.33 L 417.33,507.83 L 416.33,507.33 L 415.67,506.08 L 408.84,499.33 L 408.84,498.33 L 407.84,497.33 L 407.84,493.33 L 406.95,491.33 L 406.67,488.08 L 397.33,478.83 L 396.33,478.83 L 395.33,477.83 L 394.33,477.83 L 393.33,476.83 L 391.33,476.83 L 390.33,475.83 L 387.33,475.83 L 386.33,474.83 L 380.33,474.87 L 379.33,475.76 L 378.33,475.83 L 370.33,475.83 L 368.33,474.83 L 363.33,474.83 L 362.33,473.87 L 359.33,473.83 L 358.33,472.83 L 357.33,472.64 L 352.33,472.80 L 351.33,471.83 L 350.33,471.83 L 349.83,472.33 L 350.83,473.33 L 351.00,474.59 L 352.83,476.33 L 352.83,477.33 L 353.83,478.33 L 353.83,479.33 L 356.83,483.33 L 356.83,484.33 L 357.83,485.33 L 357.83,486.33 L 359.67,488.09 L 360.00,489.59 L 363.67,493.14 L 364.00,494.41 L 368.08,498.67 L 374.33,503.84 L 375.33,503.84 L 376.33,504.84 L 377.33,504.84 L 378.33,505.84 L 379.33,505.84 L 382.33,507.84 L 384.33,508.06 L 387.33,509.72 L 390.33,509.84 L 391.33,510.84 L 397.33,510.84 L 398.33,511.69 L 402.33,511.84 L 404.33,512.84 L 407.33,512.84 L 408.33,513.84 L 410.33,513.84 L 411.33,514.84 L 413.33,514.84 L 414.33,515.84 L 418.00,515.83 L 422.33,516.80 L 425.66,519.00 L 431.81,526.33 L 432.99,528.33 L 433.91,531.33 L 432.79,532.00 L 433.00,532.67 L 436.33,532.84 L 437.33,533.78 L 442.33,533.84 L 443.33,534.84 L 451.58,535.00 L 452.89,536.33 L 452.53,537.33 L 451.33,536.83 L 449.33,536.83 L 448.83,537.33 L 455.08,543.67 L 457.33,543.84 L 458.33,544.84 L 459.33,544.84 L 460.33,545.84 L 461.33,545.84 L 462.33,546.84 L 463.33,546.84 L 466.23,549.67 L 467.83,550.33 L 467.88,551.33 L 468.83,552.33 L 468.83,553.33 L 468.33,553.83 L 467.09,553.67 L 464.33,550.83 L 463.33,550.83 L 460.33,548.83 L 459.83,549.33 L 459.89,550.33 L 460.83,551.33 L 460.83,553.33 L 461.83,555.33 L 462.00,557.51 L 467.08,562.67 L 468.33,562.84 L 470.67,565.04 L 473.67,568.09 L 473.33,568.83 L 472.09,568.67 L 468.59,565.00 L 467.33,564.83 L 463.33,561.83 L 462.33,561.83 L 461.83,562.33 L 462.75,564.00 L 462.83,565.33 L 463.83,566.33 L 463.58,566.67 L 462.33,566.83 L 460.00,564.58 L 459.84,563.33 L 458.84,562.33 L 458.78,559.33 L 457.84,558.33 L 457.84,551.33 L 456.84,550.33 L 456.84,549.33 L 455.84,548.33 L 455.67,547.20 L 451.59,543.00 L 450.33,542.83 L 449.33,541.83 L 448.33,541.83 L 447.33,540.83 L 446.33,540.83 L 445.33,539.83 L 444.33,539.83 L 443.33,538.96 L 440.33,538.83 L 439.00,537.89 L 432.33,537.83 L 431.33,536.83 L 430.00,536.74 L 428.33,535.83 L 427.83,536.33 L 428.67,537.00 L 428.83,539.33 L 429.83,540.33 L 429.83,544.33 L 430.83,546.33 L 430.83,552.33 L 435.08,556.67 L 436.67,557.09 L 436.83,558.33 L 437.83,559.33 L 437.83,560.33 L 438.83,561.33 L 438.83,563.33 L 439.83,564.33 L 439.58,565.67 L 438.09,565.67 L 436.84,564.33 L 436.84,563.33 L 435.84,562.33 L 435.67,561.08 L 432.09,558.67 L 429.33,555.83 L 427.83,557.33 L 427.83,558.33 L 426.83,560.33 L 426.83,566.33 L 427.83,567.33 L 428.00,568.59 L 430.67,571.09 L 430.91,572.33 L 431.83,573.33 L 431.83,574.33 L 432.83,575.33 L 432.83,577.33 L 432.33,577.83 L 431.33,577.83 L 430.67,576.08 L 428.84,574.33 L 428.84,573.33 L 427.84,572.33 L 427.84,571.33 L 426.84,570.33 L 426.73,569.33 L 424.85,567.33 L 424.84,564.33 L 423.84,563.33 L 423.84,558.33 L 424.70,557.00 L 424.84,554.33 L 425.84,553.33 L 425.84,545.33 L 424.84,544.33 L 424.84,542.33 L 423.84,541.33 L 423.67,540.21 L 423.00,539.96 L 422.33,540.50 L 419.33,538.52 L 418.00,537.19 L 413.67,530.69 L 401.33,519.16 L 395.33,518.83 L 393.33,517.83 L 387.33,517.83 L 386.33,516.83 L 385.33,516.83 L 384.83,517.33 L 385.83,518.33 L 385.83,520.33 L 386.83,521.33 L 386.83,523.33 L 387.83,525.33 L 386.83,528.33 L 386.83,531.33 L 387.83,532.33 L 387.83,534.33 L 390.33,537.36 L 393.67,540.09 L 393.83,541.33 L 394.83,542.33 L 394.83,543.33 L 395.77,544.67 L 395.33,545.57 L 394.07,545.67 L 392.00,543.58 L 391.67,542.08 L 390.33,540.83 L 389.00,540.75 L 388.33,539.83 L 387.83,540.33 L 388.80,541.00 L 388.72,541.67 L 387.33,542.83 L 385.84,540.33 L 385.84,538.33 L 383.84,535.33 L 383.84,532.33 L 382.84,530.33 L 382.84,525.33 L 381.84,524.33 L 381.84,523.33 L 380.84,522.33 L 380.84,521.33 L 379.84,520.33 L 379.84,519.33 L 377.67,516.08 L 375.59,514.00 L 374.09,513.67 L 372.59,512.00 L 371.33,511.82 L 369.33,509.83 L 368.33,509.83 L 366.33,508.02 L 365.33,507.83 L 364.33,506.83 L 363.09,506.67 L 358.33,501.83 L 357.83,502.33 L 357.83,503.33 L 358.83,504.33 L 358.83,520.33 L 357.92,521.67 L 357.83,529.33 L 356.87,530.33 L 356.83,533.33 L 357.83,535.33 L 357.83,538.33 L 358.83,539.33 L 358.91,541.33 L 359.83,542.33 L 359.83,543.33 L 360.83,544.33 L 360.83,545.33 L 361.83,546.33 L 361.83,547.33 L 363.53,549.33 L 364.00,550.59 L 370.08,556.67 L 371.33,556.84 L 372.33,557.84 L 373.33,557.84 L 374.71,558.67 L 376.33,558.84 L 379.33,560.84 L 380.33,560.84 L 384.67,565.23 L 384.83,566.33 L 386.67,568.09 L 386.83,569.33 L 387.83,570.33 L 387.83,571.33 L 388.83,572.33 L 388.83,577.33 L 389.83,579.33 L 389.83,581.33 L 396.67,588.09 L 396.83,589.33 L 397.83,590.33 L 397.83,592.33 L 397.33,592.83 L 396.23,592.00 L 394.84,590.33 L 394.67,589.08 L 388.84,583.33 L 388.84,582.33 L 387.84,581.33 L 387.75,577.33 L 386.84,576.33 L 386.84,574.33 L 385.84,573.33 L 385.72,572.00 L 384.67,570.08 L 381.33,566.83 L 380.33,566.83 L 379.33,565.83 L 378.33,565.83 L 375.33,563.83 L 373.33,563.83 L 372.33,562.83 L 371.00,562.83 L 370.33,561.83 L 369.83,562.33 L 370.83,563.00 L 370.83,569.33 L 369.83,571.33 L 369.83,573.33 L 368.83,574.33 L 368.83,580.33 L 369.83,581.33 L 369.83,582.33 L 370.83,583.33 L 370.83,584.33 L 372.67,586.09 L 372.87,587.33 L 373.83,588.33 L 373.83,592.33 L 373.33,592.83 L 372.00,591.58 L 371.84,589.33 L 368.00,585.58 L 367.84,583.33 L 367.08,583.00 L 365.83,584.33 L 365.83,592.33 L 366.83,593.33 L 366.83,595.33 L 367.83,596.33 L 367.83,600.33 L 367.33,600.83 L 366.00,600.58 L 365.84,597.33 L 364.84,596.33 L 364.84,594.33 L 363.84,593.33 L 363.84,591.33 L 362.91,590.33 L 362.84,589.33 L 362.84,582.33 L 363.84,581.33 L 363.84,579.33 L 365.67,574.97 L 365.84,572.33 L 366.75,570.33 L 365.84,568.33 L 365.84,564.33 L 364.84,563.33 L 364.84,561.33 L 363.84,560.33 L 363.67,558.76 L 362.67,557.08 L 361.33,556.83 L 359.67,555.50 L 356.00,551.58 L 353.12,546.33 L 352.84,544.33 L 351.33,542.83 L 349.83,546.33 L 348.83,547.33 L 348.83,548.33 L 346.83,550.33 L 346.67,551.58 L 343.05,555.33 L 342.83,557.33 L 341.83,558.33 L 341.83,560.33 L 340.83,562.33 L 340.83,570.33 L 342.83,573.33 L 343.23,576.33 L 342.83,579.33 L 341.83,580.33 L 341.54,585.33 L 340.33,585.83 L 339.33,585.42 L 338.89,584.33 L 339.66,583.33 L 339.84,578.33 L 338.84,577.33 L 338.84,576.33 L 339.84,575.33 L 339.33,574.83 L 338.22,575.00 L 337.83,577.33 L 336.33,578.83 L 334.84,576.33 L 334.93,574.33 L 336.73,571.33 L 336.84,569.33 L 337.84,568.33 L 337.54,565.33 L 336.84,564.33 L 336.84,562.33 L 337.84,557.33 L 338.84,556.33 L 338.33,555.83 L 337.33,555.83 L 336.33,556.83 L 335.33,556.83 L 331.33,560.97 L 330.74,560.33 L 330.84,558.33 L 331.84,557.33 L 332.00,556.09 L 335.09,553.00 L 336.33,552.84 L 337.33,551.84 L 338.33,551.84 L 339.33,550.84 L 340.33,550.84 L 342.67,548.35 L 342.84,547.33 L 344.84,544.33 L 344.85,543.33 L 345.84,542.33 L 345.84,541.33 L 346.84,540.33 L 346.84,538.33 L 347.77,536.67 L 347.84,532.33 L 348.84,530.33 L 348.84,519.33 L 349.72,518.33 L 349.84,516.33 L 349.73,515.33 L 348.84,514.33 L 348.84,506.33 L 347.84,504.33 L 347.84,501.33 L 346.84,500.33 L 346.77,497.33 L 345.84,496.33 L 345.84,494.33 L 344.84,493.33 L 344.67,491.33 L 343.84,490.33 L 343.84,489.33 L 342.84,488.33 L 342.84,487.33 L 341.84,486.33 L 341.84,485.33 L 340.84,484.33 L 340.84,483.33 L 338.84,481.33 L 338.84,480.33 L 337.84,479.33 L 337.84,478.33 L 336.00,476.58 L 335.67,475.08 L 333.00,472.58 L 332.67,471.08 L 325.59,464.00 L 322.33,461.83 L 321.33,461.83 L 320.33,460.83 L 319.33,460.83 L 317.44,459.00 L 316.33,458.83 L 315.33,457.83 L 314.33,457.83 L 313.33,456.83 L 312.33,456.83 L 311.33,455.83 L 310.33,455.76 L 308.33,453.83 L 307.33,453.83 L 306.33,452.83 L 305.33,452.83 L 303.33,450.83 L 302.33,450.83 L 301.33,449.83 L 300.33,449.83 L 299.33,448.83 L 298.33,448.83 L 297.33,447.83 L 296.33,447.83 L 295.33,446.83 L 295.00,447.08 L 294.83,464.33 L 295.83,465.33 L 296.00,466.59 L 297.83,468.33 L 297.83,469.33 L 298.79,470.33 L 299.88,474.33 L 300.83,475.33 L 300.83,476.33 L 301.83,477.33 L 301.83,478.33 L 302.65,479.33 L 302.83,481.33 L 303.83,482.33 L 303.83,484.33 L 304.83,485.33 L 304.83,488.33 L 305.83,489.33 L 305.97,493.33 L 306.83,494.33 L 306.91,499.33 L 307.80,500.33 L 307.83,518.33 L 306.83,519.33 L 306.83,524.33 L 305.83,525.33 L 305.83,529.33 L 304.83,530.33 L 304.83,532.33 L 303.91,533.33 L 303.83,535.33 L 302.83,536.33 L 302.83,538.33 L 301.83,539.33 L 301.83,541.33 L 300.83,542.33 L 300.83,543.33 L 299.83,544.33 L 299.83,545.33 L 298.83,546.33 L 298.65,547.33 L 296.83,549.33 L 296.83,550.33 L 295.83,551.33 L 295.83,552.33 L 293.83,554.33 L 293.67,555.58 L 291.00,558.14 L 290.67,559.58 L 288.00,562.17 L 287.67,563.58 L 284.00,567.08 L 283.83,568.33 L 282.83,569.33 L 283.83,570.33 L 284.00,571.59 L 285.83,573.33 L 285.83,574.33 L 286.83,575.33 L 286.83,576.33 L 287.83,577.33 L 287.83,579.33 L 289.83,582.33 L 289.83,584.33 L 290.83,585.33 L 290.83,587.33 L 291.83,588.33 L 291.91,594.33 L 294.08,596.67 L 295.33,597.71 L 296.58,598.00 L 298.67,600.09 L 298.83,601.33 L 299.83,602.33 L 300.00,603.93 L 300.83,605.33 L 300.83,611.33 L 299.83,612.33 L 299.83,618.33 L 300.83,619.33 L 300.83,620.33 L 300.33,620.83 L 298.33,620.83 L 297.84,620.33 L 297.84,619.33 L 295.84,616.33 L 295.90,612.33 L 296.84,611.33 L 295.91,609.67 L 295.84,607.33 L 294.84,606.33 L 294.59,605.00 L 293.33,603.83 L 292.33,603.83 L 291.83,604.33 L 291.60,607.33 L 290.83,608.33 L 290.83,610.33 L 289.83,611.33 L 289.67,612.81 L 286.59,618.33 L 283.00,622.08 L 281.67,624.58 L 278.58,627.67 L 277.75,627.33 L 277.84,623.33 L 278.84,621.33 L 278.84,619.33 L 279.84,618.33 L 279.84,616.33 L 280.76,614.67 L 281.01,612.33 L 281.84,611.33 L 282.04,608.33 L 282.84,607.33 L 282.84,596.33 L 281.84,595.33 L 281.84,593.33 L 280.84,592.33 L 280.84,590.33 L 279.84,589.33 L 279.84,588.33 L 278.84,587.33 L 278.84,586.33 L 275.84,582.33 L 275.67,581.08 L 274.33,579.83 L 272.83,581.33 L 272.83,582.33 L 271.83,583.33 L 271.83,584.33 L 270.02,586.33 L 269.83,587.33 L 268.83,588.33 L 268.83,589.33 L 267.83,590.33 L 267.83,592.33 L 266.83,593.33 L 266.83,595.33 L 265.91,596.33 L 265.83,597.33 L 265.83,606.33 L 266.83,608.33 L 266.83,610.33 L 267.77,611.33 L 267.83,613.33 L 268.83,614.33 L 268.98,616.33 L 270.01,618.33 L 271.83,620.33 L 271.83,621.33 L 272.83,622.33 L 272.83,623.33 L 273.83,624.33 L 273.83,625.33 L 275.83,628.33 L 275.83,630.33 L 278.83,633.33 L 278.83,634.33 L 279.65,635.33 L 279.83,637.33 L 280.77,639.00 L 280.96,643.33 L 281.83,644.33 L 281.83,646.33 L 280.91,647.33 L 280.83,650.33 L 279.83,651.33 L 279.83,652.33 L 278.83,653.33 L 278.83,654.33 L 276.83,657.33 L 277.49,660.33 L 276.87,662.33 L 276.83,666.33 L 275.88,668.00 L 275.83,672.33 L 274.87,673.33 L 274.83,675.33 L 274.33,675.83 Z M 277.59,373.67 L 279.67,371.59 L 279.84,370.33 L 281.84,367.33 L 281.65,366.67 L 280.33,366.56 L 276.67,363.33 L 278.33,362.83 L 279.67,359.43 L 281.33,357.76 L 286.33,356.61 L 286.67,357.52 L 287.33,357.75 L 287.80,356.33 L 288.84,355.33 L 288.84,354.33 L 289.84,353.33 L 289.84,352.33 L 290.74,351.33 L 290.84,349.33 L 291.84,348.33 L 291.84,346.33 L 292.84,344.33 L 292.92,342.00 L 293.84,340.33 L 293.84,335.33 L 294.65,332.33 L 294.76,329.33 L 293.90,327.67 L 293.84,322.33 L 292.90,320.67 L 292.84,317.33 L 291.84,316.33 L 291.84,313.33 L 290.84,312.33 L 290.84,311.33 L 289.84,310.33 L 289.84,309.33 L 287.84,306.33 L 287.84,305.33 L 285.00,302.58 L 284.67,301.08 L 282.59,299.00 L 280.09,297.67 L 278.33,295.83 L 277.30,295.67 L 274.33,292.83 L 273.33,292.83 L 270.33,294.83 L 269.33,294.83 L 267.33,296.83 L 266.08,297.00 L 259.00,304.08 L 258.83,305.33 L 257.83,306.33 L 257.83,307.33 L 256.83,308.33 L 256.83,309.33 L 255.83,310.33 L 255.76,312.67 L 254.94,314.33 L 255.83,316.33 L 255.97,324.33 L 256.83,325.33 L 256.83,328.33 L 257.73,330.00 L 257.83,332.33 L 258.33,332.84 L 259.41,332.67 L 260.00,331.09 L 263.09,328.00 L 265.33,326.66 L 268.59,323.67 L 280.67,311.59 L 281.74,310.33 L 282.00,309.09 L 285.33,305.84 L 286.33,305.84 L 286.83,306.33 L 286.93,308.33 L 287.83,309.33 L 287.83,310.33 L 288.83,311.33 L 288.83,312.33 L 289.83,313.33 L 289.83,314.33 L 290.83,315.33 L 290.67,317.58 L 277.58,330.67 L 275.08,332.00 L 268.00,339.08 L 266.67,341.58 L 263.83,344.33 L 263.83,346.33 L 264.83,347.33 L 264.93,349.33 L 265.83,350.33 L 265.83,351.33 L 266.83,352.33 L 266.83,353.33 L 267.89,354.33 L 267.83,355.33 L 268.99,358.33 L 270.69,361.00 L 270.92,362.33 L 271.75,363.00 L 271.83,364.33 L 272.83,365.33 L 272.83,366.33 L 273.83,367.33 L 273.83,368.33 L 276.83,372.33 L 277.00,373.59 L 277.59,373.67 Z M 255.59,395.67 L 266.67,384.59 L 266.84,382.33 L 264.84,380.33 L 264.84,379.33 L 263.84,378.33 L 263.84,377.33 L 262.84,376.33 L 262.84,375.33 L 261.84,374.33 L 261.84,373.33 L 260.84,372.33 L 260.84,371.33 L 259.84,370.33 L 259.84,369.33 L 258.84,368.33 L 258.84,367.33 L 257.84,366.33 L 257.84,365.33 L 256.84,364.33 L 255.84,360.33 L 254.84,359.33 L 254.67,358.08 L 253.84,357.67 L 253.84,356.33 L 252.84,355.67 L 252.84,354.33 L 251.95,353.67 L 251.84,351.33 L 250.84,350.33 L 250.77,348.33 L 249.84,347.33 L 249.84,344.33 L 248.84,343.33 L 248.77,340.33 L 247.84,339.33 L 247.84,336.33 L 246.84,335.33 L 246.76,328.33 L 246.33,327.91 L 245.86,329.67 L 244.99,330.33 L 244.83,332.33 L 243.83,333.33 L 243.83,335.33 L 242.83,337.33 L 242.83,350.33 L 242.94,351.33 L 243.83,352.33 L 243.68,354.33 L 244.00,354.79 L 244.67,354.59 L 246.00,351.11 L 248.09,349.00 L 248.67,348.95 L 249.67,349.89 L 249.83,351.33 L 250.83,352.33 L 251.00,353.59 L 251.79,354.00 L 251.83,355.33 L 252.83,356.00 L 252.83,357.33 L 253.83,358.33 L 251.83,360.33 L 251.83,361.33 L 249.83,363.33 L 249.83,364.33 L 247.83,367.33 L 247.67,374.69 L 247.33,375.04 L 247.00,374.69 L 246.77,373.33 L 245.84,372.33 L 245.65,370.33 L 244.33,369.83 L 243.00,371.08 L 242.83,372.33 L 241.00,374.08 L 239.67,376.58 L 238.05,378.33 L 237.67,379.58 L 236.00,381.08 L 235.83,382.33 L 237.58,383.00 L 239.33,384.84 L 240.58,385.00 L 242.08,386.67 L 243.33,386.93 L 245.33,388.84 L 246.56,389.00 L 248.08,390.67 L 250.58,392.00 L 254.30,395.67 L 255.59,395.67 Z M 180.63,408.67 L 181.33,407.92 L 185.33,407.84 L 186.33,406.84 L 190.33,405.84 L 193.33,403.84 L 194.33,403.84 L 195.33,402.84 L 196.33,402.84 L 197.33,401.84 L 198.33,401.84 L 202.33,398.84 L 203.43,398.67 L 206.23,396.00 L 207.59,395.67 L 211.09,392.00 L 212.49,391.67 L 217.09,387.00 L 218.37,386.33 L 216.33,384.87 L 215.09,384.67 L 213.33,382.83 L 212.09,382.67 L 210.33,380.91 L 209.33,380.83 L 208.33,379.83 L 207.33,379.83 L 205.41,378.00 L 204.33,377.83 L 203.33,376.83 L 202.33,376.83 L 201.33,375.83 L 200.33,375.83 L 197.33,373.89 L 193.33,372.83 L 190.33,370.83 L 188.33,370.83 L 187.33,369.83 L 185.33,369.83 L 184.33,368.87 L 182.33,368.83 L 181.33,367.98 L 176.33,367.83 L 174.33,366.83 L 168.33,366.83 L 166.33,367.16 L 165.33,367.83 L 159.33,367.83 L 158.33,368.83 L 155.33,368.83 L 154.33,369.83 L 152.33,369.83 L 151.33,370.83 L 149.33,370.83 L 148.33,371.83 L 147.33,371.83 L 146.33,372.83 L 145.33,372.83 L 144.33,373.83 L 143.33,373.83 L 142.33,374.83 L 141.33,374.93 L 139.33,376.83 L 138.08,377.00 L 134.58,380.67 L 132.08,382.00 L 126.83,387.33 L 128.58,388.00 L 131.33,390.77 L 132.58,391.00 L 136.08,394.67 L 137.58,395.00 L 140.08,397.67 L 141.58,398.00 L 143.33,399.84 L 144.33,399.84 L 145.33,400.84 L 146.33,400.84 L 147.33,401.84 L 148.33,401.84 L 149.33,402.84 L 150.33,402.84 L 153.33,404.84 L 155.33,404.84 L 156.33,405.84 L 158.33,405.84 L 159.33,406.84 L 162.33,406.84 L 163.33,407.84 L 167.33,407.84 L 169.33,408.84 L 180.63,408.67 Z M 377.89,408.67 L 379.33,407.84 L 384.33,407.84 L 385.33,406.84 L 388.33,406.84 L 390.00,405.92 L 392.33,405.63 L 393.33,404.84 L 394.33,404.84 L 395.33,403.84 L 397.33,403.74 L 398.33,402.84 L 399.33,402.84 L 400.33,401.84 L 401.33,401.84 L 402.33,400.84 L 403.33,400.84 L 405.09,399.00 L 406.33,398.84 L 408.09,397.00 L 409.59,396.67 L 412.09,394.00 L 413.59,393.67 L 418.09,389.00 L 419.59,388.67 L 421.84,386.33 L 420.09,385.67 L 414.59,380.00 L 413.23,379.67 L 410.59,377.00 L 409.09,376.67 L 407.33,374.83 L 406.33,374.83 L 405.33,373.83 L 404.33,373.83 L 403.33,372.83 L 402.33,372.83 L 401.33,371.83 L 400.33,371.83 L 399.33,370.83 L 398.33,370.83 L 397.33,369.83 L 395.33,369.83 L 394.33,368.83 L 391.33,368.83 L 390.33,367.83 L 386.33,367.83 L 385.33,366.83 L 373.33,366.83 L 372.33,367.83 L 367.33,367.83 L 366.33,368.83 L 364.33,368.83 L 363.33,369.76 L 361.33,369.83 L 360.33,370.83 L 358.33,370.83 L 357.33,371.83 L 356.33,371.83 L 355.33,372.83 L 354.33,372.83 L 353.33,373.83 L 352.33,373.83 L 349.33,375.83 L 348.33,375.83 L 347.33,376.83 L 346.33,376.83 L 342.33,379.83 L 341.33,379.83 L 340.33,380.83 L 339.33,380.91 L 337.58,382.67 L 336.33,382.94 L 334.33,384.83 L 333.33,384.83 L 332.33,385.83 L 331.33,385.83 L 330.83,386.33 L 332.58,387.00 L 336.08,390.67 L 338.58,392.00 L 341.08,394.67 L 344.33,396.84 L 345.33,396.89 L 347.08,398.67 L 348.33,398.84 L 352.33,401.84 L 353.33,401.84 L 354.33,402.84 L 355.33,402.84 L 356.33,403.84 L 357.33,403.84 L 358.33,404.84 L 359.33,404.84 L 360.33,405.75 L 362.33,405.84 L 363.33,406.84 L 365.33,406.84 L 366.33,407.84 L 368.33,407.84 L 369.33,408.84 L 377.89,408.67 Z M 283.00,381.67 L 283.60,381.33 L 283.14,380.33 L 283.75,379.33 L 284.33,376.15 L 282.08,377.00 L 280.83,379.33 L 281.83,380.33 L 282.00,381.48 L 283.00,381.67 Z M 232.49,387.67 L 232.84,384.33 L 231.84,383.33 L 231.33,381.92 L 228.08,384.00 L 227.87,385.33 L 230.33,387.45 L 232.49,387.67 Z M 274.65,435.67 L 275.00,434.09 L 277.67,431.59 L 279.00,429.19 L 280.75,427.33 L 280.75,425.33 L 281.28,424.67 L 282.33,424.31 L 283.33,424.90 L 284.33,424.84 L 285.33,423.84 L 286.33,423.80 L 288.33,422.10 L 291.33,420.60 L 293.33,418.84 L 294.33,418.77 L 295.84,417.33 L 294.00,415.58 L 293.67,414.08 L 291.84,412.33 L 291.67,410.08 L 289.00,407.58 L 288.67,406.21 L 286.84,404.33 L 286.80,403.33 L 287.70,402.33 L 287.90,401.33 L 287.56,398.67 L 286.44,396.33 L 285.00,394.65 L 281.62,388.33 L 277.33,384.01 L 276.10,384.33 L 275.72,386.33 L 276.11,388.67 L 277.01,390.33 L 282.72,397.00 L 283.89,400.33 L 283.33,400.83 L 281.94,399.67 L 277.00,394.58 L 276.77,393.33 L 275.67,392.08 L 274.33,391.83 L 271.00,395.33 L 270.67,396.53 L 265.00,402.08 L 263.28,404.33 L 261.00,406.08 L 260.83,408.33 L 257.83,412.33 L 257.83,413.33 L 255.67,416.58 L 253.83,418.33 L 255.08,419.67 L 257.58,421.00 L 259.13,422.67 L 260.33,422.84 L 262.08,424.67 L 263.33,424.84 L 265.08,426.67 L 267.58,428.00 L 270.67,431.09 L 272.00,433.59 L 274.08,435.67 L 274.65,435.67 Z M 326.59,389.67 L 327.00,388.84 L 328.33,388.72 L 328.67,388.14 L 327.08,388.00 L 325.83,389.33 L 326.59,389.67 Z M 235.49,408.67 L 236.33,407.84 L 238.33,407.84 L 239.33,406.84 L 240.33,406.84 L 241.33,405.84 L 242.67,405.69 L 244.42,404.33 L 243.09,403.67 L 237.59,398.00 L 236.09,397.67 L 233.44,395.00 L 232.33,394.83 L 230.33,393.03 L 229.09,392.67 L 227.33,390.83 L 219.58,398.67 L 218.08,399.00 L 214.58,402.67 L 213.33,402.83 L 211.58,404.67 L 208.33,406.83 L 207.33,406.83 L 205.83,408.33 L 206.33,408.84 L 207.09,408.00 L 208.33,407.84 L 224.33,407.84 L 228.33,408.84 L 235.49,408.67 Z M 315.85,409.67 L 317.33,408.84 L 324.33,408.79 L 327.33,407.84 L 341.33,407.84 L 341.84,407.33 L 340.59,406.00 L 339.33,405.83 L 337.59,404.00 L 335.09,402.67 L 331.59,399.00 L 330.09,398.67 L 326.59,395.00 L 324.09,393.67 L 322.33,391.83 L 321.33,392.83 L 320.08,393.00 L 318.33,394.83 L 317.08,395.00 L 314.58,397.67 L 312.08,399.00 L 306.83,404.33 L 307.00,405.59 L 310.33,407.84 L 311.33,407.84 L 312.33,408.84 L 313.33,408.84 L 314.33,409.84 L 315.85,409.67 Z M 181.12,415.67 L 182.80,414.33 L 180.33,413.02 L 177.33,413.83 L 172.33,413.88 L 170.62,414.33 L 175.33,414.84 L 177.33,415.84 L 181.12,415.67 Z M 177.79,464.67 L 179.33,463.84 L 185.33,463.84 L 186.33,462.84 L 190.33,462.84 L 191.33,461.84 L 193.33,461.84 L 194.33,460.84 L 196.33,460.84 L 197.63,460.00 L 199.33,459.84 L 200.33,458.84 L 204.33,457.73 L 208.33,454.84 L 209.33,454.84 L 210.33,453.84 L 211.33,453.79 L 214.09,451.00 L 215.52,450.67 L 223.67,442.59 L 226.00,439.09 L 230.67,434.59 L 231.72,433.33 L 232.00,432.09 L 235.67,428.59 L 236.00,427.09 L 238.09,425.00 L 239.84,424.33 L 237.33,422.94 L 235.33,422.83 L 234.33,421.88 L 231.33,421.83 L 230.33,420.94 L 229.33,420.83 L 204.33,420.83 L 202.33,421.83 L 183.33,421.83 L 182.33,422.83 L 180.33,422.89 L 177.33,424.83 L 176.33,424.83 L 175.33,425.83 L 174.33,425.83 L 173.33,426.83 L 172.33,426.83 L 171.33,427.83 L 170.33,427.83 L 168.58,429.67 L 167.33,429.83 L 165.58,431.67 L 164.08,432.00 L 160.58,435.67 L 159.08,436.00 L 156.00,439.14 L 155.67,440.44 L 152.00,444.08 L 151.67,445.58 L 149.83,447.33 L 149.67,448.58 L 147.83,450.33 L 147.67,451.58 L 145.00,454.14 L 144.83,455.33 L 146.33,456.84 L 147.58,457.00 L 149.33,458.77 L 152.33,459.84 L 153.33,460.77 L 155.33,460.84 L 156.33,461.84 L 157.33,461.84 L 159.00,462.76 L 161.33,462.84 L 162.33,463.84 L 169.33,463.84 L 171.33,464.84 L 177.79,464.67 Z M 384.37,463.67 L 385.33,462.84 L 389.33,462.84 L 390.33,461.84 L 392.33,461.84 L 393.33,460.84 L 395.33,460.84 L 396.33,459.84 L 397.33,459.84 L 398.33,458.84 L 399.33,458.84 L 400.33,457.84 L 401.33,457.84 L 403.09,456.00 L 404.33,455.84 L 405.84,454.33 L 404.00,452.58 L 402.67,450.08 L 401.00,448.58 L 400.84,447.33 L 399.84,446.33 L 399.84,445.33 L 398.00,443.58 L 397.67,442.08 L 388.59,433.00 L 387.09,432.67 L 384.59,430.00 L 383.09,429.67 L 381.33,427.83 L 380.33,427.83 L 379.33,426.83 L 378.33,426.83 L 377.33,425.83 L 376.33,425.83 L 375.33,424.83 L 374.33,424.83 L 373.33,423.83 L 371.33,423.83 L 370.33,422.83 L 368.76,422.67 L 367.33,421.83 L 351.33,421.83 L 348.33,420.83 L 323.33,420.83 L 322.33,421.83 L 318.33,421.83 L 317.33,421.99 L 316.33,422.83 L 314.33,422.83 L 313.33,423.83 L 312.33,423.83 L 311.83,424.33 L 314.67,427.09 L 315.09,428.33 L 317.67,431.09 L 319.00,433.59 L 322.67,437.09 L 325.00,440.59 L 335.08,450.67 L 336.58,451.00 L 339.08,453.67 L 340.33,453.84 L 342.33,455.77 L 343.33,455.84 L 344.33,456.84 L 345.33,456.84 L 346.33,457.84 L 347.33,457.84 L 348.33,458.84 L 352.33,459.84 L 353.33,460.84 L 355.33,460.84 L 356.33,461.84 L 359.33,461.98 L 360.33,462.84 L 363.67,462.91 L 365.33,463.84 L 384.37,463.67 Z M 235.59,445.67 L 236.00,444.84 L 237.33,444.84 L 238.33,443.84 L 239.33,443.84 L 240.33,442.84 L 241.33,442.84 L 244.33,440.84 L 245.33,440.84 L 249.33,437.84 L 250.33,437.84 L 251.33,436.84 L 252.33,436.84 L 254.09,435.00 L 255.84,434.33 L 251.59,430.00 L 248.33,427.83 L 246.00,430.08 L 245.67,431.58 L 242.83,434.33 L 242.67,435.58 L 239.00,439.22 L 238.67,440.58 L 236.00,443.29 L 235.83,444.67 L 234.83,445.33 L 235.59,445.67 Z M 313.59,444.67 L 313.84,444.33 L 312.84,443.33 L 312.84,442.33 L 310.84,440.33 L 310.67,439.08 L 308.00,436.58 L 307.67,435.28 L 305.00,432.58 L 302.33,427.83 L 301.33,428.83 L 300.08,429.00 L 298.33,430.75 L 297.08,431.00 L 294.83,433.33 L 297.08,435.67 L 298.33,435.97 L 300.33,437.84 L 301.58,438.00 L 303.33,439.84 L 304.33,439.84 L 308.33,442.84 L 309.33,442.84 L 312.33,444.84 L 313.59,444.67 Z M 272.36,446.33 L 275.33,444.01 L 276.45,442.33 L 279.50,436.67 L 279.33,434.85 L 277.33,435.01 L 272.94,438.33 L 272.01,440.33 L 271.86,446.00 L 272.36,446.33 Z M 286.46,450.67 L 286.84,449.33 L 286.84,443.33 L 285.33,441.83 L 284.33,441.83 L 283.83,442.33 L 283.83,443.33 L 282.83,444.33 L 282.83,446.33 L 285.67,449.09 L 285.94,450.33 L 286.46,450.67 Z M 260.38,451.00 L 262.67,448.47 L 263.00,447.09 L 264.84,445.33 L 264.84,443.33 L 264.33,442.83 L 263.08,443.00 L 261.00,445.08 L 260.83,446.33 L 259.83,447.33 L 259.83,450.33 L 260.38,451.00 Z M 279.12,451.33 L 280.00,450.33 L 280.03,449.33 L 279.33,448.83 L 277.93,450.33 L 278.33,451.64 L 279.12,451.33 Z M 216.53,463.00 L 217.00,462.04 L 226.67,452.59 L 227.33,450.11 L 225.33,450.05 L 221.00,454.08 L 219.67,456.58 L 218.00,458.08 L 216.05,461.33 L 215.92,462.67 L 216.53,463.00 Z M 293.43,477.00 L 293.84,476.33 L 293.63,474.33 L 287.66,462.33 L 283.44,456.00 L 280.96,454.00 L 280.33,451.97 L 279.33,451.68 L 279.15,452.33 L 280.92,454.67 L 283.06,459.33 L 284.67,461.07 L 284.95,462.33 L 289.83,469.33 L 290.83,473.33 L 291.83,474.33 L 291.83,475.33 L 293.43,477.00 Z M 275.38,558.00 L 275.84,556.33 L 277.67,554.59 L 277.84,553.33 L 279.67,551.59 L 279.84,550.33 L 281.67,548.59 L 281.84,547.33 L 284.84,543.33 L 284.84,542.33 L 285.84,541.33 L 285.84,540.33 L 287.84,537.33 L 287.84,535.33 L 288.84,534.33 L 288.94,533.00 L 289.74,531.67 L 289.84,529.33 L 290.84,528.33 L 290.89,525.33 L 291.84,524.33 L 291.84,521.33 L 292.69,520.33 L 292.84,519.33 L 292.84,498.33 L 291.84,497.33 L 291.76,493.33 L 290.84,492.33 L 290.84,490.33 L 289.84,489.33 L 289.84,486.33 L 288.84,485.33 L 288.84,483.33 L 286.84,480.33 L 286.67,478.41 L 285.84,477.33 L 285.84,476.33 L 284.84,475.33 L 284.84,474.33 L 283.84,473.33 L 283.84,472.33 L 282.84,471.33 L 282.84,470.33 L 281.84,469.33 L 281.84,468.33 L 280.84,467.33 L 280.75,466.33 L 277.84,462.33 L 277.84,461.33 L 276.84,460.33 L 276.67,459.25 L 274.84,457.33 L 274.84,456.33 L 274.33,455.83 L 273.83,456.33 L 273.83,457.33 L 272.87,458.33 L 272.83,459.33 L 270.83,461.33 L 270.83,462.33 L 269.83,463.33 L 269.83,464.33 L 268.83,465.33 L 268.83,466.33 L 267.83,467.33 L 267.83,468.33 L 265.83,471.33 L 265.83,472.33 L 264.97,473.33 L 263.62,477.33 L 262.83,478.33 L 262.83,479.33 L 260.83,482.33 L 260.83,484.33 L 259.83,485.33 L 259.83,487.33 L 258.94,488.33 L 258.83,491.33 L 257.83,492.33 L 257.83,495.33 L 256.83,496.33 L 256.69,501.00 L 255.83,502.33 L 255.83,516.33 L 255.92,517.33 L 256.83,518.33 L 256.83,522.33 L 257.83,523.33 L 257.94,527.00 L 258.83,528.33 L 258.83,530.33 L 259.83,531.33 L 259.83,533.33 L 260.83,534.33 L 260.83,535.33 L 261.83,536.33 L 261.83,537.33 L 262.83,538.33 L 262.83,539.33 L 263.83,540.33 L 263.83,541.33 L 264.83,542.33 L 264.83,543.33 L 265.83,544.33 L 265.83,545.33 L 266.83,546.33 L 266.83,547.33 L 268.67,549.09 L 268.83,550.33 L 270.71,552.33 L 271.00,553.59 L 272.67,555.09 L 273.00,556.59 L 274.33,557.84 L 275.38,558.00 Z M 334.71,459.67 L 333.33,457.87 L 331.67,457.13 L 331.06,457.33 L 333.33,459.63 L 334.71,459.67 Z M 357.37,472.00 L 357.97,471.33 L 357.67,471.01 L 356.33,469.89 L 355.33,469.83 L 353.00,467.93 L 350.33,464.90 L 349.33,464.83 L 348.33,463.83 L 347.33,463.83 L 346.33,463.04 L 344.33,462.83 L 343.33,461.89 L 342.06,462.33 L 347.33,467.63 L 349.33,468.07 L 353.33,470.55 L 355.33,470.84 L 356.33,471.80 L 357.37,472.00 Z M 196.82,488.67 L 198.67,487.59 L 199.69,485.33 L 199.37,485.00 L 195.89,488.33 L 196.82,488.67 Z M 421.59,528.67 L 421.84,526.33 L 419.67,523.08 L 418.33,522.11 L 415.33,521.39 L 414.83,522.33 L 416.00,524.59 L 417.33,525.84 L 418.58,526.00 L 421.08,528.67 L 421.59,528.67 Z M 131.64,526.67 L 133.67,524.33 L 133.84,523.33 L 133.33,522.83 L 131.33,522.87 L 129.93,524.33 L 130.00,526.59 L 131.64,526.67 Z M 276.60,561.33 L 276.84,560.33 L 275.84,559.67 L 275.33,558.63 L 274.83,559.33 L 275.83,560.00 L 276.06,561.33 L 276.60,561.33 Z M 281.59,567.67 L 281.67,567.08 L 279.84,565.67 L 279.67,564.08 L 277.59,562.00 L 277.00,561.95 L 277.00,562.59 L 278.83,564.00 L 279.00,565.59 L 281.08,567.67 L 281.59,567.67 Z M 274.39,650.00 L 274.84,648.33 L 275.84,647.33 L 275.84,640.33 L 274.84,638.33 L 274.84,635.33 L 274.33,634.43 L 273.83,635.33 L 273.83,637.33 L 272.83,638.33 L 272.83,647.33 L 273.83,648.33 L 273.83,649.33 L 274.39,650.00 Z"/><circle cx="274" cy="443" r="149" fill="url(#liv)"/></svg>