<svg xmlns="http://www.w3.org/2000/svg" viewBox="0 0 552 747" width="552" height="747"><path fill="#4d2e11" fill-rule="evenodd" d="M 307.33,300.83 L 305.84,300.67 L 305.57,299.33 L 303.84,297.67 L 303.67,296.08 L 300.84,293.67 L 300.67,292.13 L 298.33,289.83 L 296.84,289.67 L 296.84,287.33 L 297.61,286.33 L 297.84,284.33 L 298.79,283.33 L 298.93,280.33 L 299.84,279.33 L 299.91,277.00 L 300.84,275.33 L 300.84,272.33 L 301.84,271.33 L 301.84,266.33 L 302.84,265.33 L 302.84,242.33 L 301.95,241.33 L 301.84,237.33 L 300.84,236.33 L 300.84,233.33 L 299.84,232.33 L 299.84,229.33 L 298.84,228.33 L 298.84,226.33 L 297.84,225.33 L 297.79,223.33 L 295.84,220.33 L 295.84,219.33 L 294.84,218.33 L 294.84,217.33 L 293.84,216.33 L 293.84,215.33 L 292.84,214.33 L 292.84,213.33 L 291.84,212.33 L 291.84,211.33 L 290.84,210.33 L 290.84,209.33 L 289.00,207.58 L 288.84,206.33 L 287.00,204.58 L 286.84,203.33 L 285.00,201.58 L 284.84,200.33 L 283.00,198.58 L 282.84,197.33 L 281.00,195.58 L 280.67,194.08 L 278.00,191.53 L 277.84,190.33 L 276.33,188.83 L 275.83,189.33 L 276.83,190.33 L 275.83,191.33 L 275.83,192.33 L 272.00,197.23 L 271.67,198.58 L 269.83,200.33 L 269.67,201.58 L 267.92,203.33 L 267.83,204.33 L 266.83,205.33 L 266.83,206.33 L 263.83,210.33 L 263.83,211.33 L 262.83,212.33 L 262.83,213.33 L 261.83,214.33 L 261.83,215.33 L 260.83,216.33 L 260.83,217.33 L 259.83,218.33 L 259.83,219.33 L 257.83,222.33 L 257.83,224.33 L 255.83,227.33 L 255.83,229.33 L 254.83,230.33 L 254.83,232.33 L 253.90,234.00 L 253.83,236.33 L 252.90,237.33 L 252.68,242.33 L 251.83,243.33 L 251.83,264.33 L 252.83,266.33 L 252.83,271.33 L 253.83,273.33 L 253.83,276.33 L 254.83,277.33 L 254.83,280.33 L 255.83,281.33 L 255.83,284.33 L 256.80,285.33 L 256.83,288.33 L 251.00,294.08 L 250.72,295.67 L 248.00,298.08 L 247.83,299.33 L 246.33,300.83 L 245.02,299.00 L 244.84,297.33 L 243.84,296.33 L 243.84,294.33 L 242.84,293.33 L 242.84,291.33 L 241.84,290.33 L 241.65,287.33 L 240.84,286.33 L 240.84,283.33 L 239.84,282.33 L 239.84,279.33 L 238.84,277.33 L 238.84,274.33 L 237.84,273.33 L 237.71,267.33 L 236.84,266.33 L 236.84,243.33 L 237.84,242.33 L 237.84,238.33 L 238.84,236.33 L 238.84,233.33 L 239.84,232.33 L 239.84,229.33 L 240.84,228.33 L 240.84,226.33 L 241.84,225.33 L 241.84,223.33 L 242.84,222.33 L 243.84,218.33 L 245.84,215.33 L 245.84,214.33 L 247.84,211.33 L 247.84,210.33 L 249.84,208.33 L 249.84,207.33 L 250.84,206.33 L 251.00,205.09 L 252.67,203.59 L 252.84,202.33 L 254.67,200.59 L 255.01,199.33 L 257.67,196.59 L 258.00,195.09 L 260.67,192.59 L 261.00,191.09 L 263.67,188.59 L 264.71,187.33 L 265.00,186.09 L 267.67,183.40 L 268.00,182.09 L 270.67,179.84 L 271.00,181.59 L 272.33,182.84 L 272.84,182.33 L 271.84,181.67 L 271.84,180.33 L 270.84,179.67 L 270.84,178.33 L 268.84,175.33 L 268.84,173.33 L 267.84,172.33 L 267.84,169.33 L 266.84,168.33 L 266.84,154.33 L 267.84,153.33 L 267.84,150.33 L 268.62,149.33 L 269.84,144.33 L 270.84,143.33 L 268.00,140.58 L 266.67,138.08 L 264.84,136.33 L 264.76,134.33 L 263.84,133.33 L 263.75,131.33 L 262.84,130.33 L 262.84,123.33 L 263.84,122.33 L 263.84,119.33 L 264.84,118.33 L 264.84,117.33 L 265.84,116.33 L 265.84,115.33 L 266.84,114.33 L 266.84,113.33 L 268.33,111.84 L 269.33,111.84 L 269.83,112.33 L 269.83,114.33 L 268.83,115.33 L 268.83,119.33 L 267.83,120.33 L 267.83,123.33 L 268.83,125.33 L 268.83,127.33 L 269.83,128.33 L 270.00,129.59 L 274.08,133.67 L 275.36,133.33 L 275.84,131.33 L 276.84,130.33 L 276.84,126.33 L 277.72,125.00 L 277.84,121.33 L 276.84,120.33 L 276.84,117.33 L 275.84,116.33 L 275.84,114.33 L 274.84,113.33 L 274.84,111.33 L 273.84,110.33 L 273.84,108.33 L 272.84,107.33 L 272.84,105.33 L 271.98,104.33 L 271.84,95.33 L 272.84,94.33 L 272.84,92.33 L 273.84,91.33 L 273.84,89.33 L 274.84,88.33 L 275.04,86.33 L 275.84,85.33 L 275.84,83.33 L 276.77,82.33 L 276.84,78.33 L 277.79,77.33 L 277.84,72.33 L 278.33,71.84 L 279.33,71.84 L 279.83,72.33 L 279.83,83.33 L 280.83,85.33 L 280.83,88.33 L 281.83,89.33 L 282.08,91.33 L 284.83,95.33 L 284.83,96.33 L 285.83,97.33 L 286.83,101.33 L 287.83,102.33 L 287.83,103.33 L 288.83,104.33 L 288.83,105.33 L 289.76,106.33 L 289.97,109.33 L 290.83,110.33 L 290.97,114.33 L 291.83,115.33 L 291.83,122.33 L 290.83,123.33 L 290.83,127.33 L 289.83,128.33 L 289.83,130.33 L 288.83,131.33 L 288.83,132.33 L 286.83,135.33 L 286.83,136.33 L 285.00,138.08 L 284.83,139.33 L 281.83,143.33 L 282.83,144.33 L 282.83,145.33 L 283.83,146.33 L 283.83,147.33 L 284.83,148.33 L 284.83,150.33 L 285.83,151.33 L 285.90,155.33 L 286.83,156.33 L 286.83,164.33 L 285.88,166.00 L 285.83,170.33 L 284.83,171.33 L 284.83,173.33 L 283.83,174.33 L 283.83,176.33 L 281.83,177.33 L 285.67,181.09 L 285.83,182.33 L 289.67,186.09 L 290.00,187.59 L 293.67,191.09 L 294.00,192.43 L 297.67,196.09 L 297.83,197.33 L 299.67,199.09 L 299.83,200.33 L 302.56,203.33 L 302.83,204.33 L 305.83,208.33 L 305.83,209.33 L 306.83,210.33 L 306.92,211.33 L 308.83,213.33 L 308.83,214.33 L 310.82,217.33 L 311.83,221.33 L 312.83,222.33 L 312.83,223.33 L 313.59,224.33 L 313.97,227.33 L 314.83,228.33 L 314.83,230.33 L 315.82,231.33 L 315.93,235.33 L 316.83,236.33 L 316.83,240.33 L 317.79,242.00 L 317.83,266.33 L 316.83,268.33 L 316.83,272.33 L 315.89,274.00 L 315.83,277.33 L 314.83,278.33 L 314.83,281.33 L 313.89,282.33 L 313.83,285.33 L 312.83,286.33 L 311.83,290.33 L 310.83,291.33 L 310.83,293.33 L 309.83,294.33 L 309.83,295.33 L 307.83,298.33 L 307.83,300.33 L 307.33,300.83 Z M 283.59,118.67 L 283.69,104.33 L 282.84,103.33 L 282.84,101.33 L 280.84,98.33 L 279.61,93.33 L 278.33,90.83 L 277.83,91.33 L 277.83,94.33 L 276.83,95.33 L 276.92,103.33 L 277.83,104.33 L 277.83,105.33 L 278.83,106.33 L 278.83,107.33 L 279.83,108.33 L 279.83,109.33 L 280.83,110.33 L 280.83,112.33 L 281.83,113.33 L 281.83,115.33 L 282.83,116.33 L 282.83,118.33 L 283.59,118.67 Z M 277.59,168.67 L 277.84,154.33 L 276.84,153.33 L 276.84,151.33 L 275.84,150.67 L 275.84,149.33 L 274.84,148.67 L 274.33,147.42 L 273.83,148.33 L 274.83,149.00 L 275.00,150.59 L 275.83,151.00 L 275.83,164.33 L 276.83,165.33 L 276.83,168.33 L 277.59,168.67 Z M 275.39,188.00 L 275.84,187.33 L 274.84,186.67 L 274.78,185.33 L 273.33,183.83 L 272.83,184.33 L 273.94,185.00 L 273.83,186.33 L 275.39,188.00 Z M 278.33,674.83 L 276.84,673.33 L 276.84,668.33 L 275.84,666.33 L 275.84,656.33 L 274.84,655.33 L 274.84,654.33 L 273.84,653.33 L 273.84,652.33 L 272.84,651.33 L 272.84,650.33 L 270.84,647.33 L 270.84,637.33 L 271.84,636.33 L 271.84,634.33 L 272.75,633.33 L 272.84,631.33 L 273.84,630.33 L 273.84,629.33 L 272.84,628.33 L 272.67,627.08 L 270.00,624.54 L 269.67,623.08 L 268.00,621.58 L 267.67,620.08 L 265.84,618.33 L 265.84,617.33 L 264.84,616.33 L 264.84,615.33 L 262.84,612.33 L 262.84,611.33 L 261.87,610.33 L 261.84,608.33 L 260.90,606.67 L 260.84,602.33 L 260.33,601.83 L 259.08,602.00 L 256.83,605.33 L 256.83,607.33 L 255.92,608.33 L 256.04,610.33 L 256.83,611.33 L 256.83,613.33 L 255.83,614.33 L 254.65,619.33 L 253.33,619.83 L 251.84,618.33 L 251.90,617.33 L 252.79,616.33 L 252.84,610.33 L 251.84,609.33 L 251.84,604.33 L 252.84,603.33 L 252.84,601.33 L 253.84,600.33 L 254.00,599.09 L 256.09,597.00 L 257.59,596.67 L 260.84,593.33 L 260.84,588.33 L 261.71,587.33 L 261.84,584.33 L 262.84,583.33 L 262.84,582.33 L 263.84,581.33 L 263.84,579.33 L 264.84,578.33 L 264.84,577.33 L 265.84,576.33 L 266.00,575.09 L 267.84,573.33 L 267.84,572.33 L 269.84,569.33 L 269.84,568.33 L 268.00,566.58 L 267.67,565.08 L 264.00,561.58 L 263.67,560.20 L 261.00,557.58 L 260.84,556.33 L 259.00,554.58 L 258.78,553.33 L 257.00,551.58 L 256.84,550.33 L 253.84,546.33 L 253.84,545.33 L 252.84,544.33 L 252.84,543.33 L 251.84,542.33 L 251.84,541.33 L 249.84,538.33 L 249.84,536.33 L 248.84,535.33 L 248.84,533.33 L 247.84,532.33 L 247.84,530.33 L 246.84,529.33 L 246.84,526.33 L 245.84,525.33 L 245.84,520.33 L 244.84,519.33 L 244.84,498.33 L 245.77,497.33 L 245.84,491.33 L 246.84,490.33 L 246.84,487.33 L 247.84,486.33 L 247.84,484.33 L 248.76,482.67 L 248.84,480.33 L 249.84,479.33 L 249.84,477.33 L 251.79,474.33 L 251.84,472.33 L 252.84,471.33 L 252.84,470.33 L 253.84,469.33 L 253.84,468.33 L 255.84,465.33 L 255.84,464.33 L 256.84,463.33 L 256.84,462.33 L 258.84,459.33 L 258.84,458.33 L 260.65,456.33 L 260.84,455.33 L 261.84,454.33 L 261.84,453.33 L 263.77,451.33 L 264.00,450.09 L 265.84,448.33 L 266.00,447.09 L 267.84,445.33 L 268.84,443.33 L 268.67,442.08 L 267.33,440.83 L 263.33,443.83 L 262.33,443.83 L 261.33,444.83 L 260.33,445.08 L 258.33,446.83 L 257.33,446.83 L 256.33,447.83 L 255.33,447.83 L 254.33,448.83 L 253.33,448.83 L 252.33,449.83 L 251.33,449.83 L 250.33,450.83 L 249.33,450.83 L 248.33,451.83 L 247.33,451.83 L 244.33,453.83 L 243.33,453.83 L 242.33,454.83 L 241.33,454.83 L 240.33,455.83 L 239.33,455.83 L 238.33,456.83 L 237.33,456.83 L 234.33,458.83 L 233.33,458.83 L 232.33,459.83 L 231.33,459.83 L 229.33,461.83 L 228.33,461.83 L 227.33,462.83 L 226.08,463.00 L 219.00,470.08 L 218.67,471.58 L 216.00,474.08 L 215.83,475.33 L 214.00,477.08 L 213.83,478.33 L 210.83,482.33 L 210.83,483.33 L 209.83,484.33 L 209.83,485.33 L 208.98,486.33 L 208.83,488.33 L 206.89,491.33 L 206.83,493.33 L 205.83,494.33 L 205.83,497.33 L 204.83,498.33 L 204.83,501.33 L 203.83,502.33 L 203.83,508.33 L 202.83,510.33 L 202.83,516.33 L 203.83,517.33 L 203.89,524.33 L 204.83,525.33 L 204.83,534.33 L 205.83,535.33 L 205.83,537.33 L 206.83,538.33 L 206.92,540.33 L 207.83,541.33 L 207.83,542.33 L 208.83,543.33 L 208.83,544.33 L 209.83,545.33 L 210.00,546.50 L 214.33,550.84 L 216.33,550.84 L 217.33,551.84 L 218.58,552.00 L 223.67,557.09 L 223.83,558.33 L 224.83,559.33 L 223.33,560.83 L 222.00,559.58 L 221.84,558.33 L 220.59,557.00 L 219.33,556.83 L 218.33,555.83 L 217.33,555.83 L 216.33,554.83 L 215.83,555.33 L 215.92,557.33 L 216.83,558.33 L 216.83,567.33 L 215.83,568.33 L 215.83,570.33 L 216.83,572.33 L 216.83,575.33 L 214.83,577.33 L 214.83,582.33 L 213.67,584.58 L 212.33,584.83 L 211.84,584.33 L 211.84,583.33 L 212.84,580.33 L 212.72,579.33 L 211.84,578.33 L 211.84,570.33 L 212.77,568.67 L 212.84,565.33 L 213.78,564.33 L 213.77,562.33 L 212.84,561.33 L 212.84,559.33 L 212.00,558.04 L 211.84,556.33 L 210.84,555.33 L 210.84,554.33 L 207.00,550.58 L 206.67,549.08 L 204.00,546.58 L 202.67,543.08 L 201.33,541.83 L 201.00,542.08 L 200.83,544.33 L 197.83,548.33 L 197.83,549.33 L 190.00,557.08 L 189.83,558.33 L 188.83,559.33 L 188.83,560.33 L 187.91,562.00 L 187.83,565.33 L 186.83,566.33 L 186.87,570.33 L 187.83,571.33 L 187.83,573.33 L 188.83,574.33 L 188.83,576.33 L 189.83,577.33 L 189.83,580.33 L 190.83,581.33 L 190.83,589.33 L 189.83,590.33 L 189.83,592.33 L 188.92,593.33 L 187.83,597.33 L 186.83,598.33 L 186.83,599.33 L 186.33,599.83 L 185.33,599.83 L 184.84,599.33 L 184.84,598.33 L 185.76,597.33 L 185.84,594.33 L 186.84,593.33 L 187.04,591.33 L 187.84,590.33 L 187.84,584.33 L 187.03,583.33 L 186.33,580.01 L 185.67,581.58 L 180.83,586.33 L 180.67,588.58 L 179.33,589.83 L 178.84,589.33 L 178.84,585.33 L 179.84,584.33 L 180.00,583.09 L 181.84,581.33 L 181.84,580.33 L 183.84,577.33 L 183.84,572.33 L 182.84,571.33 L 182.84,560.33 L 182.33,559.83 L 181.33,560.83 L 179.33,560.86 L 178.33,561.83 L 176.33,562.12 L 172.33,564.83 L 171.33,564.83 L 168.00,568.08 L 166.88,569.33 L 166.83,570.33 L 166.02,571.33 L 165.76,574.67 L 164.91,576.33 L 164.83,579.33 L 163.83,580.33 L 163.83,581.33 L 161.58,583.67 L 160.33,583.83 L 159.00,585.08 L 158.83,586.33 L 157.83,587.33 L 157.83,588.33 L 155.58,590.67 L 154.09,590.67 L 153.84,589.33 L 154.84,588.33 L 154.84,587.33 L 155.71,586.33 L 156.00,585.09 L 159.33,582.00 L 160.59,581.67 L 162.84,579.33 L 162.84,575.33 L 163.73,573.33 L 164.00,568.43 L 164.84,567.33 L 165.00,566.09 L 172.09,559.00 L 173.33,558.84 L 175.33,556.84 L 179.33,555.80 L 180.33,554.84 L 181.33,554.84 L 182.33,553.84 L 183.46,553.67 L 189.67,547.59 L 189.84,546.33 L 191.63,544.33 L 192.84,540.33 L 193.84,539.33 L 193.84,537.33 L 194.72,536.33 L 194.84,535.33 L 194.84,523.33 L 193.84,521.33 L 193.84,502.33 L 193.33,501.83 L 192.33,502.83 L 191.08,503.00 L 188.58,505.67 L 187.33,505.83 L 185.58,507.67 L 184.33,507.83 L 182.58,509.67 L 181.33,509.83 L 178.08,512.00 L 173.00,517.08 L 172.83,518.33 L 171.83,519.33 L 170.72,522.33 L 169.83,523.33 L 169.76,528.67 L 167.83,533.33 L 166.83,534.33 L 166.83,535.33 L 164.33,537.58 L 163.00,538.08 L 161.83,539.33 L 161.67,540.55 L 160.33,541.83 L 159.33,541.43 L 158.84,540.33 L 159.84,539.33 L 160.00,538.09 L 164.55,533.33 L 164.84,531.33 L 165.84,530.33 L 165.84,526.33 L 165.25,524.33 L 165.84,522.33 L 165.84,519.33 L 167.84,516.33 L 167.33,515.83 L 165.00,515.90 L 163.33,516.83 L 151.33,516.83 L 149.67,517.77 L 147.33,517.83 L 146.33,518.83 L 145.33,518.83 L 144.33,519.83 L 143.33,519.83 L 142.33,520.83 L 141.33,520.83 L 139.33,522.13 L 135.00,526.08 L 134.83,527.33 L 133.83,528.33 L 133.83,529.33 L 132.83,530.33 L 132.83,531.33 L 129.00,535.08 L 128.83,536.33 L 127.83,537.33 L 127.83,538.33 L 126.83,539.33 L 126.83,540.33 L 125.83,541.33 L 125.83,547.33 L 124.83,548.33 L 124.83,549.33 L 125.83,550.33 L 125.83,552.33 L 126.83,553.33 L 126.83,564.33 L 125.83,565.33 L 125.83,566.33 L 124.83,567.33 L 124.83,568.33 L 123.83,569.33 L 123.83,570.33 L 122.83,571.33 L 122.83,572.33 L 121.00,574.08 L 120.83,575.33 L 119.33,576.83 L 117.84,575.33 L 118.67,574.07 L 118.84,572.33 L 120.67,570.36 L 121.00,569.09 L 122.84,567.33 L 122.84,566.33 L 123.84,565.33 L 123.84,564.33 L 124.84,563.33 L 124.84,559.33 L 123.98,558.33 L 123.84,556.33 L 122.84,555.33 L 122.67,554.08 L 122.08,554.00 L 120.58,555.67 L 117.33,557.83 L 116.08,558.00 L 113.83,560.33 L 113.83,561.33 L 112.83,562.33 L 112.59,564.00 L 111.33,564.83 L 110.84,564.33 L 110.84,562.33 L 111.84,561.33 L 111.84,559.33 L 113.79,557.33 L 114.00,556.09 L 117.67,553.59 L 119.84,550.33 L 119.84,549.33 L 120.84,548.33 L 120.84,539.33 L 121.84,538.33 L 121.84,536.00 L 122.84,535.33 L 122.33,534.83 L 121.67,535.83 L 117.33,535.94 L 116.33,536.83 L 109.33,536.83 L 108.33,537.83 L 106.33,537.83 L 105.33,538.83 L 104.33,538.83 L 103.33,539.83 L 102.33,539.83 L 101.33,540.83 L 100.33,540.83 L 98.58,542.67 L 97.08,543.00 L 94.58,545.67 L 93.27,546.33 L 92.67,547.58 L 90.83,549.33 L 90.83,553.33 L 89.86,554.33 L 89.67,557.58 L 84.57,562.67 L 82.08,563.00 L 78.33,566.83 L 77.33,566.83 L 76.33,567.83 L 75.33,567.83 L 74.84,567.33 L 75.09,565.00 L 76.51,564.67 L 80.33,560.84 L 82.33,560.84 L 84.09,559.00 L 85.40,558.67 L 85.84,557.33 L 87.60,555.00 L 87.89,551.33 L 88.84,549.33 L 88.33,548.83 L 86.33,548.83 L 85.33,549.83 L 84.75,549.33 L 85.00,548.09 L 87.00,546.94 L 88.59,546.67 L 94.09,541.00 L 95.33,539.98 L 96.59,539.67 L 99.09,537.00 L 101.84,535.33 L 101.33,534.83 L 97.33,534.83 L 96.84,534.33 L 97.09,533.00 L 98.33,532.84 L 99.33,531.84 L 100.33,531.84 L 101.33,530.84 L 105.33,530.84 L 106.33,531.84 L 111.33,531.84 L 112.33,530.84 L 118.33,530.84 L 119.33,529.84 L 121.33,529.84 L 124.33,527.84 L 125.33,527.84 L 126.67,526.59 L 126.84,525.33 L 127.84,524.33 L 127.84,523.33 L 130.00,520.09 L 133.09,517.00 L 134.33,516.60 L 136.33,514.84 L 137.33,514.84 L 140.33,512.84 L 141.33,512.84 L 142.33,511.84 L 145.33,511.84 L 146.33,510.84 L 149.33,510.84 L 150.33,509.84 L 156.33,509.84 L 157.67,508.93 L 162.33,508.84 L 163.33,507.84 L 166.33,507.66 L 167.33,506.84 L 168.33,506.84 L 169.33,505.84 L 170.33,505.84 L 171.33,504.90 L 172.33,504.84 L 173.33,503.84 L 174.33,503.84 L 175.33,502.84 L 176.33,502.84 L 178.09,501.00 L 179.59,500.67 L 182.09,498.00 L 183.51,497.67 L 189.67,491.53 L 190.00,490.25 L 193.84,486.33 L 193.84,485.33 L 196.84,481.33 L 196.84,480.33 L 198.84,478.33 L 198.84,477.33 L 200.84,474.33 L 200.84,473.33 L 202.84,471.33 L 202.33,470.83 L 201.33,470.83 L 200.33,471.83 L 197.33,471.83 L 196.33,472.83 L 192.33,472.83 L 190.33,473.83 L 180.33,473.87 L 177.33,474.63 L 175.33,473.83 L 163.33,473.83 L 162.33,474.83 L 160.33,474.83 L 159.33,475.83 L 158.33,475.83 L 157.33,476.83 L 156.33,476.83 L 155.33,477.83 L 154.33,477.83 L 150.00,482.08 L 149.67,483.58 L 148.00,485.08 L 147.67,486.49 L 145.83,488.33 L 145.73,489.67 L 144.83,491.33 L 144.83,495.33 L 143.89,496.33 L 142.83,499.33 L 140.58,501.67 L 139.00,502.13 L 138.83,503.33 L 137.83,504.33 L 137.83,505.33 L 136.83,506.33 L 136.66,507.33 L 135.33,507.83 L 134.84,507.33 L 134.84,505.33 L 135.84,504.33 L 135.84,503.33 L 136.65,502.33 L 137.04,500.67 L 139.84,498.33 L 139.84,495.33 L 140.84,494.33 L 140.84,490.33 L 141.33,489.23 L 140.33,488.83 L 139.33,489.83 L 136.33,489.87 L 135.33,490.83 L 131.33,490.83 L 130.33,491.71 L 129.08,492.00 L 124.33,496.83 L 123.09,496.67 L 122.84,495.33 L 129.33,488.84 L 130.33,488.84 L 131.33,487.84 L 134.33,487.84 L 136.00,486.93 L 137.33,486.84 L 141.33,483.84 L 142.59,483.67 L 143.84,482.33 L 143.84,481.33 L 144.84,480.33 L 145.00,479.09 L 146.84,477.33 L 147.00,476.09 L 151.09,472.00 L 152.33,471.84 L 154.16,470.33 L 152.59,469.00 L 151.33,468.83 L 150.33,467.83 L 149.33,467.83 L 148.33,466.98 L 147.33,466.83 L 146.33,465.83 L 145.33,465.83 L 144.33,464.83 L 143.33,464.83 L 141.38,463.00 L 140.09,462.67 L 138.59,461.00 L 137.33,460.83 L 136.33,459.83 L 134.33,459.83 L 133.33,460.83 L 130.33,460.83 L 124.33,464.83 L 121.33,464.83 L 121.00,464.00 L 124.59,461.67 L 126.67,459.59 L 126.84,458.33 L 126.33,457.83 L 123.33,457.83 L 122.33,456.93 L 119.33,456.83 L 118.33,455.83 L 116.33,455.83 L 115.33,456.83 L 113.00,456.96 L 111.08,458.00 L 109.33,459.83 L 108.08,460.00 L 106.88,461.33 L 106.67,462.58 L 104.00,465.08 L 103.58,466.67 L 101.08,468.00 L 99.33,469.83 L 98.33,469.83 L 97.33,470.83 L 96.08,471.00 L 93.33,473.83 L 92.33,474.15 L 91.84,473.33 L 92.00,472.09 L 93.84,471.33 L 93.33,470.83 L 90.33,470.83 L 89.33,471.83 L 88.33,471.83 L 86.84,470.33 L 88.09,469.00 L 89.33,468.84 L 90.33,467.84 L 95.33,467.84 L 96.33,467.06 L 98.59,466.67 L 102.67,462.59 L 103.00,461.09 L 106.16,457.67 L 109.09,455.00 L 110.33,454.84 L 111.84,453.33 L 111.33,452.83 L 108.33,452.83 L 106.33,453.83 L 104.09,453.67 L 104.00,453.06 L 106.33,450.88 L 108.33,450.84 L 109.33,449.84 L 115.33,449.84 L 116.33,450.84 L 121.33,450.84 L 122.33,451.84 L 130.33,451.84 L 131.33,450.84 L 133.33,450.84 L 134.33,449.84 L 135.59,449.67 L 138.84,446.33 L 138.84,445.33 L 139.84,444.33 L 139.84,443.33 L 141.84,440.33 L 141.84,439.33 L 143.67,437.59 L 144.00,436.09 L 145.84,434.33 L 146.00,433.09 L 157.09,422.00 L 158.33,421.84 L 160.09,420.00 L 161.71,419.33 L 159.10,418.00 L 156.33,417.73 L 153.33,416.01 L 151.33,415.83 L 150.33,414.83 L 146.33,413.83 L 145.33,412.83 L 144.33,412.83 L 143.33,411.83 L 142.33,411.83 L 141.33,410.83 L 140.33,410.83 L 138.33,408.88 L 137.33,408.83 L 134.09,406.67 L 132.33,404.83 L 131.09,404.67 L 128.59,402.00 L 127.09,401.67 L 120.59,395.00 L 117.33,392.83 L 108.33,392.97 L 107.33,393.83 L 106.33,393.83 L 105.33,394.83 L 101.33,395.83 L 100.33,396.83 L 97.33,396.83 L 96.33,395.83 L 95.33,395.83 L 94.33,394.83 L 93.09,394.67 L 90.84,392.33 L 91.33,391.84 L 96.33,391.84 L 97.33,390.84 L 98.67,390.59 L 97.59,389.00 L 95.33,387.83 L 93.33,387.83 L 92.33,388.83 L 91.08,389.00 L 89.33,390.83 L 88.00,390.94 L 86.33,391.83 L 83.33,391.97 L 82.33,392.83 L 80.33,391.83 L 78.33,391.83 L 77.33,390.83 L 74.33,390.63 L 71.84,389.33 L 72.09,388.00 L 74.33,387.84 L 75.33,386.84 L 84.33,386.84 L 85.33,385.84 L 86.33,385.84 L 87.33,384.84 L 90.59,383.67 L 91.84,382.33 L 89.84,381.33 L 91.33,379.84 L 95.33,379.84 L 96.33,380.84 L 98.33,380.84 L 101.33,382.84 L 103.67,382.91 L 105.33,383.84 L 107.33,383.84 L 108.33,382.84 L 110.33,382.84 L 111.33,381.84 L 113.33,381.84 L 114.33,380.93 L 115.59,380.67 L 130.09,366.00 L 131.33,365.84 L 133.09,364.00 L 134.33,363.80 L 136.33,361.84 L 137.33,361.84 L 138.33,360.84 L 139.33,360.84 L 140.33,359.84 L 141.33,359.84 L 142.33,358.84 L 143.33,358.84 L 144.33,357.84 L 145.33,357.84 L 146.33,356.84 L 148.33,356.84 L 149.33,355.84 L 151.33,355.84 L 152.33,354.84 L 155.33,354.84 L 156.33,353.84 L 160.33,353.84 L 161.33,352.84 L 182.33,352.84 L 183.33,353.84 L 187.33,353.84 L 189.33,354.84 L 192.00,354.93 L 193.33,355.84 L 195.33,355.84 L 196.33,356.84 L 198.33,356.92 L 199.33,357.84 L 200.33,357.84 L 201.33,358.84 L 202.33,358.84 L 203.33,359.84 L 204.33,359.84 L 205.33,360.84 L 206.33,360.84 L 207.33,361.84 L 208.33,361.84 L 209.33,362.75 L 210.33,362.84 L 211.33,363.84 L 212.33,363.84 L 213.33,364.84 L 214.33,364.84 L 216.33,366.78 L 217.33,366.84 L 218.33,367.84 L 219.33,367.84 L 221.08,369.67 L 222.33,369.84 L 224.08,371.67 L 225.33,371.84 L 229.33,374.84 L 230.79,373.33 L 231.00,372.09 L 233.67,369.59 L 234.00,368.13 L 236.67,365.59 L 236.84,364.33 L 238.67,362.59 L 238.84,361.33 L 239.84,360.33 L 238.84,359.33 L 238.84,329.33 L 239.84,328.33 L 239.84,323.33 L 240.84,322.33 L 240.84,319.33 L 241.84,318.33 L 241.85,315.33 L 242.84,314.33 L 242.84,312.33 L 243.84,311.33 L 243.84,309.33 L 244.84,308.33 L 244.84,307.33 L 245.84,306.33 L 245.84,305.33 L 246.84,304.33 L 246.84,303.33 L 247.84,302.33 L 247.84,301.33 L 248.84,300.33 L 248.84,299.33 L 249.84,298.33 L 250.88,296.00 L 261.09,286.00 L 262.33,285.84 L 264.09,284.00 L 265.33,283.84 L 266.33,282.84 L 268.33,282.66 L 271.33,280.95 L 273.33,280.84 L 276.33,278.84 L 278.33,278.84 L 281.33,280.84 L 283.33,280.84 L 284.33,281.84 L 285.33,281.84 L 288.33,283.84 L 289.33,283.84 L 292.26,286.67 L 293.58,287.00 L 300.83,294.00 L 301.08,295.33 L 302.00,296.59 L 303.83,298.00 L 304.00,299.59 L 305.83,301.00 L 305.83,302.33 L 306.83,303.33 L 307.83,307.33 L 309.83,310.33 L 309.83,312.33 L 310.74,313.67 L 310.83,316.33 L 311.83,317.33 L 311.83,322.33 L 312.83,324.33 L 312.83,331.33 L 311.83,333.33 L 311.83,339.33 L 310.83,341.33 L 311.02,343.33 L 311.33,343.64 L 312.33,342.84 L 312.83,343.33 L 312.93,345.33 L 313.83,346.33 L 313.83,348.33 L 314.83,349.33 L 314.92,351.67 L 315.72,353.00 L 315.83,354.33 L 316.83,355.33 L 316.87,357.33 L 317.83,358.33 L 317.83,360.33 L 319.83,363.33 L 319.83,365.33 L 320.83,366.33 L 321.00,367.53 L 322.83,369.33 L 323.00,370.59 L 324.83,372.33 L 325.00,373.59 L 326.33,374.84 L 328.59,373.67 L 330.33,371.84 L 331.59,371.67 L 333.33,369.84 L 334.59,369.67 L 336.33,367.84 L 337.59,367.67 L 339.33,365.84 L 340.33,365.84 L 341.33,364.84 L 342.33,364.73 L 344.33,362.84 L 345.33,362.84 L 346.33,361.84 L 347.33,361.84 L 348.33,360.84 L 349.33,360.84 L 350.33,359.84 L 351.33,359.84 L 354.33,357.84 L 356.33,357.73 L 357.33,356.84 L 358.33,356.84 L 359.33,355.84 L 361.33,355.84 L 363.00,354.91 L 365.33,354.84 L 366.33,353.84 L 370.33,353.76 L 371.33,352.84 L 378.33,352.80 L 381.33,352.13 L 384.33,352.79 L 392.67,352.86 L 394.33,353.84 L 398.33,353.91 L 399.33,354.84 L 401.33,354.84 L 403.33,355.84 L 405.33,355.90 L 408.33,357.84 L 409.33,357.84 L 410.33,358.84 L 411.33,358.84 L 414.33,360.79 L 415.33,360.84 L 416.33,361.84 L 417.33,361.84 L 418.33,362.84 L 419.33,362.84 L 421.08,364.67 L 423.58,366.00 L 426.08,368.67 L 428.58,370.00 L 433.67,375.09 L 435.00,377.59 L 438.08,380.67 L 439.33,380.84 L 440.33,381.84 L 442.33,381.91 L 443.33,382.84 L 450.33,382.84 L 453.33,380.84 L 455.33,380.84 L 456.33,379.84 L 461.33,379.84 L 461.83,380.33 L 462.00,382.59 L 463.33,383.84 L 464.33,383.84 L 466.67,385.62 L 469.33,386.16 L 475.33,385.84 L 477.00,386.75 L 478.76,387.00 L 479.83,388.33 L 479.83,389.33 L 479.33,389.83 L 475.33,390.03 L 472.33,391.74 L 466.33,391.83 L 465.33,390.83 L 464.09,390.67 L 462.33,388.90 L 461.33,388.83 L 460.33,387.83 L 459.33,387.83 L 458.33,386.83 L 456.33,386.83 L 455.33,387.83 L 452.67,388.12 L 453.00,389.59 L 454.33,389.84 L 455.33,390.84 L 457.33,390.84 L 458.33,391.67 L 462.33,391.84 L 462.83,392.33 L 461.33,393.83 L 460.33,393.83 L 457.33,395.83 L 452.33,395.83 L 451.33,394.87 L 449.33,394.83 L 448.33,393.83 L 447.33,393.83 L 446.33,393.01 L 442.33,392.83 L 441.33,391.90 L 439.33,391.98 L 438.33,392.83 L 435.33,392.83 L 427.58,400.67 L 426.08,401.00 L 422.58,404.67 L 421.33,404.83 L 419.58,406.67 L 418.33,406.99 L 413.33,410.83 L 412.33,410.83 L 409.33,412.83 L 408.33,412.83 L 407.33,413.83 L 403.33,414.83 L 400.33,416.83 L 398.33,416.83 L 397.33,417.82 L 394.33,417.83 L 393.83,418.33 L 397.08,421.67 L 398.58,422.00 L 407.67,431.09 L 408.00,432.52 L 410.83,435.33 L 410.83,436.33 L 413.83,440.33 L 413.83,441.33 L 416.83,445.33 L 417.00,446.59 L 420.08,449.67 L 421.33,449.84 L 422.33,450.70 L 425.33,450.84 L 426.33,451.84 L 428.33,451.80 L 429.33,450.84 L 433.33,450.84 L 434.33,449.84 L 436.33,449.84 L 437.33,448.84 L 441.33,448.84 L 442.33,449.84 L 446.33,450.84 L 449.33,452.84 L 450.33,452.84 L 451.33,453.84 L 452.33,453.84 L 453.83,455.33 L 453.83,456.33 L 453.33,456.83 L 452.33,455.83 L 451.33,455.83 L 450.33,454.83 L 449.33,454.83 L 448.33,453.83 L 445.33,453.83 L 444.83,454.33 L 446.33,455.84 L 447.67,456.09 L 449.00,458.59 L 456.08,465.67 L 458.00,466.76 L 461.33,466.84 L 462.33,467.74 L 464.33,467.84 L 465.87,469.33 L 465.99,470.33 L 465.33,470.83 L 463.33,470.83 L 462.33,469.83 L 457.33,469.83 L 455.59,468.00 L 454.33,467.66 L 451.25,465.33 L 448.84,462.33 L 448.67,461.08 L 444.59,457.00 L 443.33,456.83 L 442.33,455.83 L 441.00,455.73 L 439.33,454.83 L 437.33,454.83 L 435.67,455.76 L 433.33,455.90 L 432.33,456.83 L 430.33,456.96 L 429.33,457.83 L 427.33,457.83 L 426.83,458.33 L 428.58,459.00 L 433.33,463.84 L 435.58,464.00 L 436.83,465.33 L 436.33,466.71 L 435.33,465.83 L 431.87,465.67 L 425.33,460.83 L 424.33,460.83 L 423.33,459.83 L 421.33,459.83 L 420.33,458.83 L 419.33,458.83 L 418.33,459.83 L 417.25,460.00 L 414.58,462.67 L 413.33,463.00 L 408.33,466.83 L 407.33,466.83 L 404.33,468.83 L 402.08,469.00 L 402.00,470.59 L 403.33,471.84 L 404.58,472.00 L 409.67,477.09 L 411.00,480.59 L 414.08,483.67 L 415.33,483.84 L 416.33,484.84 L 417.33,484.84 L 418.33,485.60 L 421.33,485.84 L 422.33,486.80 L 424.33,486.84 L 425.33,487.84 L 426.33,487.84 L 428.33,489.84 L 429.58,490.00 L 434.83,495.33 L 434.67,496.58 L 433.33,496.83 L 429.59,493.00 L 428.33,492.73 L 426.59,491.00 L 425.33,490.83 L 424.33,489.83 L 422.33,489.66 L 421.33,488.91 L 416.33,488.83 L 415.08,488.00 L 415.00,489.33 L 415.83,490.33 L 415.83,493.33 L 415.00,494.33 L 415.83,497.33 L 419.83,501.33 L 419.87,502.33 L 421.83,505.33 L 421.33,505.83 L 420.09,505.67 L 418.00,503.58 L 417.59,502.33 L 415.09,500.67 L 413.00,498.51 L 412.84,497.33 L 411.84,496.33 L 411.84,491.33 L 410.84,489.33 L 410.84,488.33 L 407.00,484.58 L 406.67,483.08 L 400.33,476.83 L 399.33,476.83 L 398.33,475.83 L 394.33,474.83 L 393.00,473.90 L 370.33,473.83 L 368.33,472.83 L 365.33,472.83 L 362.67,471.36 L 361.79,470.33 L 361.67,469.21 L 359.33,466.97 L 358.33,466.83 L 356.33,465.01 L 355.33,464.83 L 354.33,463.97 L 352.00,463.13 L 351.01,463.33 L 354.20,466.67 L 357.33,468.84 L 358.59,469.00 L 359.87,470.33 L 359.33,471.56 L 358.33,470.83 L 354.00,470.67 L 353.33,469.83 L 352.83,470.33 L 354.83,472.33 L 354.83,473.33 L 357.83,477.33 L 357.83,478.33 L 358.83,479.33 L 358.83,480.33 L 360.78,482.33 L 360.83,483.33 L 361.83,484.33 L 361.83,485.33 L 363.67,487.09 L 364.00,488.59 L 367.67,492.09 L 370.14,495.33 L 371.55,496.00 L 376.08,500.67 L 377.58,501.00 L 379.33,502.84 L 380.58,503.00 L 382.33,504.84 L 383.33,504.84 L 386.33,506.84 L 388.33,506.84 L 389.33,507.84 L 391.33,507.84 L 392.33,508.84 L 395.33,508.84 L 396.33,509.84 L 402.33,509.84 L 404.33,510.84 L 408.33,510.84 L 409.33,511.84 L 412.33,511.84 L 413.33,512.84 L 415.33,513.01 L 416.33,513.84 L 417.33,513.84 L 418.33,514.84 L 419.33,514.84 L 421.33,516.84 L 422.58,517.00 L 425.67,520.13 L 425.83,521.33 L 426.83,522.33 L 426.83,523.33 L 427.83,524.33 L 427.83,525.33 L 429.08,526.67 L 431.33,528.84 L 432.33,528.84 L 435.33,530.84 L 438.33,530.97 L 439.33,531.84 L 443.33,531.84 L 444.33,532.76 L 445.33,532.84 L 447.33,532.84 L 448.33,531.84 L 451.33,531.84 L 454.33,533.78 L 455.33,533.84 L 455.83,534.33 L 455.58,535.67 L 452.33,535.83 L 452.00,536.59 L 456.18,540.67 L 457.33,540.84 L 458.33,541.84 L 459.33,541.84 L 460.33,542.84 L 462.33,542.84 L 463.33,543.84 L 464.33,543.84 L 467.67,547.09 L 467.58,547.67 L 466.33,548.20 L 465.00,547.86 L 464.33,546.87 L 463.87,547.33 L 464.86,548.00 L 464.83,550.33 L 465.74,552.00 L 465.83,554.33 L 466.83,555.33 L 466.83,556.33 L 471.08,560.67 L 474.58,562.00 L 477.83,565.33 L 477.83,566.33 L 477.33,566.83 L 475.33,566.83 L 473.59,565.00 L 472.09,564.67 L 470.33,562.83 L 469.09,562.67 L 467.33,560.83 L 465.88,561.33 L 466.83,562.33 L 466.67,564.58 L 466.33,564.83 L 465.00,563.58 L 463.95,561.67 L 463.84,560.33 L 462.84,559.33 L 462.84,557.33 L 461.84,556.33 L 461.80,550.33 L 460.84,549.33 L 460.84,548.33 L 459.84,547.33 L 459.59,546.00 L 457.48,544.00 L 456.09,543.67 L 454.33,541.83 L 453.33,541.83 L 452.33,540.83 L 451.33,540.78 L 448.33,538.83 L 447.33,538.83 L 446.33,537.83 L 444.33,537.83 L 443.33,536.88 L 437.33,536.83 L 435.33,535.83 L 433.33,535.83 L 432.83,536.33 L 433.83,538.33 L 433.93,541.33 L 434.83,542.33 L 435.02,551.33 L 438.08,554.67 L 439.33,555.70 L 440.58,556.00 L 441.67,557.25 L 441.83,559.33 L 443.83,562.33 L 443.62,563.67 L 442.33,563.83 L 441.67,562.08 L 436.59,557.00 L 435.09,556.67 L 433.33,554.83 L 432.07,555.67 L 431.67,558.04 L 430.83,559.33 L 430.83,563.33 L 431.83,564.33 L 431.83,565.33 L 432.83,567.33 L 434.67,569.09 L 435.89,572.33 L 436.83,573.33 L 436.83,575.33 L 436.33,575.83 L 435.33,575.83 L 433.84,573.33 L 433.84,572.33 L 432.00,570.58 L 429.84,567.33 L 429.84,566.33 L 428.84,565.33 L 428.67,562.68 L 427.84,561.33 L 427.90,557.00 L 428.84,555.33 L 428.93,552.33 L 429.84,551.33 L 429.84,543.33 L 428.84,542.33 L 428.84,540.33 L 427.84,539.33 L 427.84,538.33 L 426.84,537.33 L 426.84,536.33 L 424.84,533.33 L 424.84,532.33 L 423.00,529.81 L 422.84,528.33 L 421.84,527.33 L 421.84,526.33 L 420.84,525.33 L 420.67,524.08 L 419.33,522.83 L 418.33,522.83 L 417.33,521.83 L 416.33,521.83 L 415.33,520.83 L 414.33,520.83 L 411.33,518.83 L 409.33,518.83 L 408.33,517.83 L 403.33,517.83 L 402.33,516.83 L 391.33,516.83 L 390.33,515.83 L 389.08,516.00 L 388.83,516.33 L 389.83,517.33 L 389.83,518.33 L 390.67,519.71 L 390.83,521.33 L 391.71,522.33 L 391.83,532.33 L 394.00,535.59 L 398.81,540.33 L 398.83,543.33 L 398.33,543.83 L 396.84,542.33 L 396.67,541.08 L 393.59,538.00 L 391.33,537.83 L 388.85,535.33 L 388.74,532.33 L 387.84,531.33 L 387.84,526.33 L 386.84,525.33 L 386.84,523.33 L 380.67,514.08 L 379.33,512.83 L 378.09,512.67 L 376.33,510.83 L 375.09,510.67 L 372.33,507.93 L 371.33,507.83 L 370.33,506.83 L 369.33,506.83 L 367.43,505.00 L 366.09,504.67 L 362.33,500.83 L 361.83,501.33 L 362.83,502.00 L 362.83,522.33 L 361.83,524.33 L 361.83,534.33 L 362.83,535.33 L 362.83,538.33 L 363.76,539.33 L 363.83,541.33 L 364.83,542.33 L 364.83,544.33 L 366.63,546.33 L 367.00,547.59 L 368.67,549.09 L 370.08,551.67 L 372.58,553.00 L 374.33,554.84 L 375.33,554.84 L 376.33,555.84 L 377.33,555.84 L 378.33,556.84 L 379.33,556.84 L 380.33,557.84 L 381.84,558.00 L 384.33,559.84 L 385.33,559.84 L 387.67,562.09 L 389.00,564.59 L 390.83,566.33 L 391.89,569.33 L 392.83,570.33 L 392.83,577.33 L 393.74,579.00 L 393.83,580.33 L 397.08,583.67 L 398.33,583.95 L 399.67,585.09 L 399.83,586.33 L 400.83,587.33 L 400.83,588.33 L 401.83,589.33 L 401.58,590.67 L 400.09,590.67 L 398.84,589.33 L 398.84,588.33 L 397.84,587.33 L 397.67,586.08 L 395.59,584.00 L 394.33,583.79 L 392.84,582.33 L 392.84,581.33 L 391.84,580.33 L 391.78,578.33 L 390.84,577.33 L 390.84,572.33 L 389.84,571.33 L 389.84,570.33 L 387.67,567.08 L 386.33,565.83 L 385.09,565.67 L 383.33,563.83 L 382.33,563.83 L 381.33,562.83 L 379.33,562.76 L 378.33,561.83 L 377.33,561.83 L 375.33,560.83 L 374.33,559.87 L 373.87,560.33 L 373.83,570.33 L 372.94,571.33 L 372.83,574.33 L 371.83,575.33 L 371.83,576.33 L 372.83,577.33 L 372.83,579.33 L 373.83,580.33 L 373.83,581.33 L 375.67,583.09 L 375.83,584.33 L 376.83,585.33 L 376.83,586.33 L 377.83,587.33 L 377.78,590.33 L 377.33,590.78 L 376.00,590.58 L 374.84,588.33 L 374.84,586.33 L 372.00,583.58 L 371.67,582.08 L 370.08,581.00 L 369.83,584.33 L 368.83,585.33 L 368.83,587.33 L 369.83,589.33 L 369.87,592.33 L 370.83,593.33 L 370.83,595.33 L 371.83,597.33 L 371.83,599.33 L 371.33,599.83 L 370.33,599.83 L 369.84,599.33 L 369.77,597.33 L 368.84,596.33 L 368.84,594.33 L 366.84,591.33 L 366.67,588.33 L 365.84,587.33 L 365.84,583.33 L 366.72,582.33 L 366.84,579.33 L 367.66,578.33 L 367.84,575.33 L 368.84,574.33 L 368.84,572.33 L 369.84,571.33 L 369.84,563.33 L 368.84,562.33 L 368.84,560.33 L 367.84,559.33 L 367.84,558.33 L 361.00,551.58 L 360.84,550.33 L 358.84,548.33 L 358.84,547.33 L 357.84,546.33 L 357.84,545.33 L 356.84,544.33 L 356.67,543.08 L 355.00,543.08 L 354.83,544.33 L 353.83,545.33 L 353.56,546.33 L 350.83,549.33 L 350.67,550.58 L 347.00,554.08 L 346.83,555.33 L 345.90,556.33 L 345.67,559.13 L 344.83,560.33 L 344.83,563.33 L 343.92,565.33 L 344.83,567.33 L 344.83,569.33 L 346.83,572.33 L 346.83,576.33 L 345.83,578.33 L 345.83,582.33 L 344.83,583.33 L 344.83,584.33 L 344.33,584.83 L 343.33,584.83 L 342.84,584.33 L 342.84,578.33 L 343.73,577.00 L 343.67,573.94 L 342.33,572.83 L 341.83,573.33 L 341.67,576.58 L 340.33,576.83 L 339.84,576.33 L 339.84,571.33 L 340.84,570.33 L 340.84,559.33 L 341.84,557.33 L 341.67,555.08 L 341.08,555.00 L 337.00,559.08 L 336.48,560.67 L 335.33,560.94 L 334.84,560.33 L 334.84,559.33 L 335.84,558.33 L 335.84,557.33 L 336.84,556.33 L 337.00,555.09 L 340.09,552.00 L 341.59,551.67 L 347.84,545.33 L 347.84,544.33 L 348.84,543.33 L 348.84,542.33 L 350.84,539.33 L 350.84,537.33 L 351.84,536.33 L 351.84,533.33 L 352.84,532.33 L 352.84,521.33 L 353.84,520.33 L 353.84,512.33 L 352.93,511.33 L 352.84,504.33 L 351.84,502.33 L 351.84,499.33 L 350.98,498.33 L 350.84,496.33 L 350.04,495.33 L 349.59,492.33 L 348.84,491.33 L 348.84,490.33 L 347.84,489.33 L 347.84,488.33 L 346.84,487.33 L 346.67,485.65 L 344.84,482.33 L 344.73,481.33 L 343.00,479.58 L 342.84,478.33 L 341.84,477.33 L 341.80,476.33 L 340.00,474.58 L 338.67,472.08 L 337.00,470.58 L 336.71,469.33 L 335.67,468.08 L 332.59,465.00 L 330.09,463.67 L 328.33,461.83 L 327.33,461.83 L 325.48,460.00 L 324.33,459.83 L 323.33,458.83 L 322.33,458.83 L 321.33,457.83 L 320.33,457.83 L 319.33,456.83 L 318.33,456.83 L 315.33,454.83 L 314.33,454.83 L 312.33,452.83 L 311.33,452.83 L 310.33,451.83 L 309.33,451.83 L 308.33,450.83 L 307.33,450.83 L 306.33,449.83 L 303.33,448.75 L 302.33,447.83 L 301.33,447.83 L 299.33,445.83 L 298.33,445.83 L 297.33,444.83 L 296.33,444.83 L 294.33,443.11 L 293.33,442.83 L 292.33,441.83 L 291.33,441.83 L 290.33,440.83 L 289.08,441.00 L 287.00,443.08 L 286.83,445.33 L 288.67,447.09 L 290.00,449.59 L 291.83,451.33 L 292.00,452.53 L 293.83,454.33 L 293.83,455.33 L 294.83,456.33 L 294.83,457.33 L 296.83,459.33 L 296.83,460.33 L 298.83,463.33 L 298.83,464.33 L 300.67,466.33 L 300.83,467.33 L 301.83,468.33 L 301.83,469.33 L 302.83,470.33 L 302.83,471.33 L 303.83,472.33 L 303.83,473.33 L 304.83,474.33 L 304.83,475.33 L 305.83,476.33 L 305.83,478.33 L 306.83,479.33 L 306.83,481.33 L 307.83,482.33 L 307.83,484.33 L 308.83,485.33 L 308.93,488.33 L 309.83,489.33 L 309.83,492.33 L 310.83,494.33 L 310.92,499.33 L 311.73,500.33 L 311.83,516.33 L 310.90,517.33 L 310.83,523.33 L 309.97,524.33 L 309.83,528.33 L 308.83,529.33 L 308.83,531.33 L 307.83,532.33 L 307.83,534.33 L 306.83,535.33 L 306.83,537.33 L 305.83,538.33 L 305.83,539.33 L 304.97,540.33 L 304.56,542.33 L 301.83,546.33 L 301.83,547.33 L 300.83,548.33 L 300.83,549.33 L 296.67,555.58 L 294.83,557.33 L 294.67,558.58 L 291.00,562.08 L 290.65,563.33 L 287.33,566.83 L 286.00,566.83 L 284.84,565.67 L 284.78,564.33 L 283.67,563.08 L 280.59,560.00 L 279.83,560.33 L 282.83,563.00 L 283.00,564.59 L 285.83,567.00 L 287.83,569.33 L 288.00,570.59 L 289.83,572.33 L 289.83,573.33 L 290.83,574.33 L 290.83,575.33 L 291.83,576.33 L 291.83,577.33 L 292.83,578.33 L 292.87,579.33 L 293.83,580.33 L 293.83,581.33 L 294.83,582.33 L 294.83,584.33 L 295.83,585.33 L 295.90,587.67 L 296.83,589.33 L 296.83,594.33 L 298.33,595.72 L 299.58,596.00 L 302.67,599.09 L 302.83,600.33 L 303.83,601.33 L 303.67,619.58 L 302.33,619.83 L 300.84,618.33 L 300.84,616.33 L 299.84,615.33 L 299.84,606.33 L 298.84,605.33 L 298.67,604.08 L 296.33,601.83 L 295.83,602.33 L 295.83,605.33 L 294.83,606.33 L 294.83,608.33 L 293.83,609.33 L 293.83,610.33 L 291.83,613.33 L 291.83,614.33 L 290.83,615.33 L 290.83,616.33 L 288.83,618.33 L 288.67,619.58 L 283.00,625.08 L 282.35,626.33 L 281.09,626.67 L 280.84,623.33 L 282.84,620.33 L 283.00,618.73 L 283.84,617.33 L 284.00,614.67 L 284.84,613.33 L 284.84,612.33 L 285.72,611.33 L 285.84,608.33 L 286.73,607.33 L 286.84,595.33 L 285.84,593.33 L 285.84,591.33 L 284.84,590.33 L 284.75,588.33 L 283.84,587.33 L 283.67,586.33 L 281.84,584.33 L 281.67,583.08 L 279.84,581.33 L 279.67,580.08 L 278.33,578.83 L 276.83,580.33 L 276.67,581.58 L 274.83,583.33 L 274.83,584.33 L 273.83,585.33 L 273.83,586.33 L 271.83,589.33 L 271.83,590.33 L 270.83,592.33 L 270.83,594.33 L 269.83,595.33 L 269.83,605.33 L 270.83,607.33 L 270.83,609.33 L 271.83,610.33 L 271.83,612.33 L 272.83,613.33 L 272.83,614.33 L 273.68,615.33 L 273.93,617.33 L 275.83,619.33 L 276.00,620.59 L 277.83,622.33 L 277.83,623.33 L 279.83,626.33 L 279.83,627.33 L 280.83,628.33 L 280.83,629.33 L 282.83,632.33 L 282.83,633.33 L 283.83,634.33 L 283.83,636.33 L 284.83,637.33 L 284.89,641.67 L 285.71,643.33 L 284.83,646.33 L 284.83,648.33 L 283.89,649.33 L 283.83,651.33 L 281.90,654.00 L 281.83,659.33 L 280.83,661.33 L 280.83,664.33 L 279.83,666.33 L 279.74,671.33 L 278.83,672.33 L 278.83,674.33 L 278.33,674.83 Z M 280.59,372.67 L 283.00,369.09 L 284.67,367.59 L 285.00,366.09 L 286.84,364.33 L 286.84,363.33 L 287.84,362.33 L 288.00,361.09 L 289.80,359.33 L 289.84,358.33 L 290.84,357.33 L 290.84,356.33 L 291.84,355.33 L 291.85,353.33 L 292.84,352.33 L 292.84,351.33 L 293.84,350.33 L 293.84,349.33 L 294.75,348.33 L 294.84,346.33 L 295.84,345.33 L 295.84,343.33 L 296.84,342.33 L 296.84,338.33 L 297.84,337.33 L 297.84,321.33 L 296.84,320.33 L 296.84,317.33 L 295.85,316.33 L 295.84,313.33 L 293.84,310.33 L 293.72,309.00 L 291.84,306.33 L 291.84,305.33 L 289.84,303.33 L 289.67,302.08 L 281.59,294.00 L 280.09,293.67 L 278.33,291.83 L 276.33,291.83 L 275.33,292.83 L 274.33,292.83 L 273.33,293.83 L 272.33,293.83 L 270.33,295.83 L 269.08,296.00 L 263.00,302.08 L 262.80,303.33 L 260.83,305.33 L 260.83,306.33 L 258.83,309.33 L 258.83,311.33 L 258.23,312.33 L 258.83,313.33 L 258.90,319.33 L 259.83,320.33 L 259.90,325.33 L 260.83,326.33 L 260.83,329.33 L 261.83,330.33 L 261.83,331.33 L 262.33,331.84 L 263.70,330.33 L 264.00,329.09 L 266.09,327.00 L 269.59,324.67 L 275.09,319.00 L 277.59,317.67 L 281.67,313.59 L 284.00,310.09 L 287.67,306.50 L 288.33,304.84 L 289.33,304.59 L 290.45,305.33 L 292.01,309.33 L 292.83,310.33 L 292.83,311.33 L 294.83,314.33 L 294.67,315.58 L 282.56,327.67 L 280.08,329.00 L 268.00,341.08 L 267.67,342.58 L 265.83,344.33 L 267.83,347.33 L 268.83,351.33 L 269.83,352.33 L 269.83,353.33 L 271.83,356.33 L 272.90,360.33 L 274.83,363.33 L 274.83,364.33 L 277.83,368.33 L 277.83,369.33 L 280.00,372.59 L 280.59,372.67 Z M 255.45,354.33 L 255.84,353.33 L 255.61,352.33 L 254.84,351.33 L 254.84,350.33 L 253.84,349.67 L 253.84,347.33 L 252.84,346.67 L 252.84,344.33 L 251.84,343.33 L 251.84,341.33 L 250.84,340.33 L 250.84,338.33 L 249.97,337.33 L 249.84,334.33 L 248.84,332.33 L 248.84,328.33 L 248.33,327.83 L 247.83,328.33 L 247.83,333.33 L 246.83,335.33 L 246.83,351.67 L 245.83,352.33 L 246.33,352.97 L 246.84,352.00 L 247.67,351.59 L 248.00,350.14 L 249.84,348.33 L 250.00,346.97 L 251.33,345.84 L 252.83,347.00 L 252.83,349.33 L 253.83,350.00 L 253.87,352.33 L 255.45,354.33 Z M 307.59,354.67 L 307.84,353.00 L 308.84,352.33 L 308.84,351.00 L 309.84,350.33 L 309.84,348.00 L 310.84,347.33 L 310.79,345.00 L 310.33,344.01 L 309.83,345.33 L 309.83,347.67 L 308.83,348.33 L 308.83,350.67 L 308.00,351.08 L 307.83,352.67 L 306.83,353.33 L 306.93,354.67 L 307.59,354.67 Z M 258.59,394.67 L 260.09,393.00 L 261.33,392.67 L 262.53,391.67 L 266.67,387.59 L 270.84,382.33 L 270.84,381.33 L 269.00,379.58 L 268.62,378.33 L 265.91,375.33 L 265.84,374.33 L 264.84,373.33 L 264.84,372.33 L 263.84,371.33 L 263.84,370.33 L 262.84,369.33 L 262.84,368.33 L 260.84,366.33 L 259.84,362.33 L 258.84,361.33 L 258.84,360.33 L 256.84,357.33 L 256.84,355.33 L 256.33,354.83 L 255.83,355.33 L 255.83,358.33 L 252.00,362.08 L 251.83,363.33 L 250.83,364.33 L 250.67,372.51 L 249.29,373.00 L 248.84,371.33 L 247.84,370.33 L 247.84,369.33 L 247.08,369.00 L 245.00,371.08 L 244.83,372.33 L 243.00,374.08 L 241.67,376.58 L 240.00,378.08 L 239.83,379.33 L 238.22,381.33 L 240.33,381.84 L 243.15,384.67 L 244.58,385.00 L 246.33,386.84 L 247.58,387.00 L 250.08,389.67 L 251.58,390.00 L 255.33,393.84 L 256.33,393.84 L 257.33,394.84 L 258.59,394.67 Z M 305.59,358.67 L 305.67,357.00 L 306.84,356.33 L 306.33,355.01 L 305.88,356.67 L 304.90,357.33 L 304.94,358.67 L 305.59,358.67 Z M 300.59,395.67 L 304.09,392.00 L 306.59,390.67 L 310.09,387.00 L 311.33,386.72 L 312.59,385.67 L 316.84,381.33 L 315.67,379.22 L 313.00,376.58 L 312.67,375.08 L 310.84,373.33 L 310.84,372.33 L 309.84,371.33 L 309.67,370.08 L 307.84,368.33 L 307.84,367.33 L 306.84,366.33 L 306.84,365.33 L 305.84,364.33 L 305.84,363.33 L 304.84,362.33 L 304.33,359.02 L 303.83,361.33 L 301.83,363.33 L 301.83,364.33 L 300.83,365.33 L 300.83,366.33 L 299.00,368.08 L 298.67,369.58 L 296.83,371.33 L 296.67,372.58 L 295.00,374.08 L 293.67,376.58 L 287.83,382.33 L 288.00,383.59 L 300.08,395.67 L 300.59,395.67 Z M 177.56,407.33 L 179.33,406.84 L 185.33,406.72 L 186.33,405.84 L 188.33,405.84 L 189.33,404.84 L 193.33,403.84 L 194.33,402.84 L 195.33,402.84 L 196.33,401.84 L 197.33,401.84 L 200.33,399.84 L 201.33,399.84 L 202.33,398.84 L 203.33,398.84 L 205.09,397.00 L 206.33,396.84 L 208.09,395.00 L 209.59,394.67 L 213.09,391.00 L 214.33,390.66 L 219.09,386.00 L 220.75,385.33 L 218.59,383.00 L 217.33,382.83 L 215.33,380.83 L 214.33,380.83 L 213.33,379.83 L 212.33,379.75 L 210.33,377.83 L 209.33,377.83 L 208.33,376.83 L 207.33,376.83 L 206.33,375.83 L 205.33,375.83 L 204.33,374.83 L 198.67,371.97 L 197.33,371.83 L 196.33,370.83 L 195.33,370.83 L 194.33,369.90 L 192.33,369.83 L 191.33,368.90 L 189.33,368.83 L 188.33,368.03 L 185.33,367.83 L 184.33,366.83 L 181.33,366.83 L 179.33,365.83 L 164.33,365.83 L 163.33,365.99 L 162.33,366.83 L 158.33,366.94 L 157.33,367.83 L 155.33,367.83 L 154.33,368.83 L 152.33,368.83 L 151.33,369.83 L 150.33,369.83 L 149.33,370.83 L 148.00,370.95 L 145.33,372.83 L 144.33,372.83 L 143.33,373.83 L 142.33,373.83 L 140.33,375.83 L 139.08,376.00 L 135.58,379.67 L 134.08,380.00 L 128.83,385.33 L 132.14,388.67 L 133.58,389.00 L 138.29,393.67 L 139.58,394.00 L 141.33,395.84 L 142.58,396.00 L 144.33,397.84 L 145.58,398.00 L 147.33,399.84 L 148.33,399.84 L 149.33,400.84 L 150.33,400.84 L 151.33,401.84 L 155.33,402.84 L 156.33,403.84 L 158.33,403.84 L 159.33,404.84 L 161.33,404.84 L 162.33,405.84 L 165.33,405.84 L 166.33,406.84 L 174.33,406.84 L 177.56,407.33 Z M 385.59,406.67 L 386.33,405.84 L 390.33,405.84 L 391.33,404.84 L 393.33,404.84 L 395.00,403.94 L 396.33,403.84 L 397.33,402.84 L 399.33,402.84 L 400.33,401.84 L 401.33,401.84 L 402.33,400.84 L 403.33,400.84 L 406.33,398.84 L 407.33,398.84 L 413.59,394.67 L 416.09,392.00 L 417.59,391.67 L 422.09,387.00 L 423.33,386.84 L 424.84,385.33 L 418.59,379.00 L 417.26,378.67 L 414.59,376.00 L 413.09,375.67 L 411.33,373.83 L 410.09,373.67 L 408.33,371.83 L 407.33,371.83 L 404.33,369.83 L 402.33,369.83 L 401.33,368.83 L 399.33,368.83 L 398.33,367.83 L 396.33,367.83 L 395.33,366.87 L 391.33,366.83 L 390.33,365.83 L 374.33,365.83 L 373.33,366.83 L 369.33,366.83 L 368.33,367.83 L 366.33,367.83 L 365.33,368.83 L 363.33,368.83 L 362.33,369.83 L 360.33,369.83 L 359.33,370.83 L 358.33,370.83 L 357.33,371.83 L 356.33,371.83 L 355.33,372.83 L 354.33,372.83 L 353.33,373.83 L 352.33,373.83 L 351.33,374.83 L 350.33,374.83 L 349.33,375.83 L 348.33,375.89 L 346.33,377.83 L 345.33,377.83 L 344.33,378.83 L 343.33,378.83 L 341.58,380.67 L 340.08,381.00 L 338.58,382.67 L 336.08,384.00 L 334.83,385.33 L 339.58,389.00 L 342.08,391.67 L 343.58,392.00 L 345.08,393.67 L 347.58,395.00 L 349.25,396.67 L 350.33,396.84 L 351.33,397.84 L 352.33,397.84 L 356.33,400.84 L 357.33,400.84 L 358.33,401.84 L 359.33,401.84 L 360.33,402.84 L 361.33,402.84 L 362.33,403.76 L 364.33,403.84 L 365.33,404.84 L 366.33,404.84 L 367.33,405.76 L 370.33,405.84 L 371.33,406.84 L 385.59,406.67 Z M 286.59,380.67 L 286.67,380.08 L 284.84,378.33 L 284.67,377.08 L 282.19,375.00 L 281.87,376.33 L 283.83,378.33 L 284.00,379.59 L 285.33,380.84 L 286.59,380.67 Z M 283.46,389.33 L 284.74,388.33 L 283.84,387.33 L 283.84,386.33 L 282.84,384.33 L 280.33,382.22 L 279.33,382.32 L 278.94,383.33 L 279.17,384.33 L 280.75,386.33 L 280.93,387.33 L 283.46,389.33 Z M 237.22,407.67 L 238.33,406.84 L 239.33,406.84 L 240.33,405.84 L 242.33,405.84 L 243.33,404.84 L 244.33,404.84 L 245.33,403.84 L 246.33,403.84 L 246.84,403.33 L 242.59,399.00 L 241.09,398.67 L 238.59,396.00 L 237.09,395.67 L 234.33,392.83 L 233.09,392.67 L 229.33,388.83 L 228.67,390.58 L 222.58,396.67 L 220.08,398.00 L 217.58,400.67 L 215.08,402.00 L 213.58,403.67 L 212.33,403.83 L 210.58,405.67 L 208.83,406.33 L 209.33,406.84 L 235.33,406.84 L 236.33,407.79 L 237.22,407.67 Z M 321.41,408.67 L 322.33,407.84 L 327.33,407.84 L 329.33,406.84 L 346.33,406.84 L 347.00,406.33 L 345.33,404.83 L 344.09,404.67 L 342.33,402.83 L 341.09,402.67 L 339.33,400.83 L 338.09,400.67 L 335.53,398.00 L 334.09,397.67 L 330.59,394.00 L 328.09,392.67 L 326.59,391.00 L 325.33,390.83 L 323.58,392.67 L 322.08,393.00 L 319.58,395.67 L 318.08,396.00 L 310.83,403.33 L 311.08,404.67 L 312.33,404.84 L 314.08,406.67 L 315.33,406.84 L 317.33,408.70 L 321.41,408.67 Z M 278.59,433.67 L 285.09,427.00 L 286.33,425.96 L 287.59,425.67 L 290.09,423.00 L 291.59,422.67 L 294.09,420.00 L 295.33,419.84 L 298.59,417.67 L 298.90,416.33 L 298.84,415.33 L 297.84,414.33 L 297.84,413.33 L 296.84,412.33 L 296.84,411.33 L 294.00,408.58 L 292.67,405.08 L 290.36,403.00 L 289.09,402.67 L 284.00,397.56 L 282.67,395.08 L 279.33,391.83 L 278.08,392.00 L 263.00,407.08 L 262.83,408.33 L 261.00,410.08 L 260.83,411.33 L 259.00,413.08 L 258.83,414.33 L 257.83,415.33 L 258.15,417.67 L 259.33,417.84 L 261.33,419.75 L 262.58,420.00 L 266.08,423.67 L 268.58,425.00 L 277.08,433.67 L 278.59,433.67 Z M 186.59,462.67 L 187.33,461.84 L 191.33,461.84 L 192.33,460.84 L 194.33,460.84 L 195.67,459.97 L 198.33,459.84 L 199.33,458.84 L 201.33,458.78 L 204.33,456.84 L 205.33,456.84 L 206.33,455.84 L 207.33,455.84 L 208.33,454.84 L 209.33,454.84 L 210.33,453.84 L 211.33,453.84 L 213.33,451.84 L 214.59,451.67 L 216.09,450.00 L 218.59,448.67 L 233.67,433.59 L 235.00,431.09 L 238.67,427.59 L 239.02,426.33 L 241.67,423.59 L 241.45,422.33 L 239.33,421.83 L 238.33,420.91 L 234.33,420.83 L 232.33,419.83 L 222.33,419.83 L 221.33,418.97 L 220.33,418.83 L 212.33,418.83 L 211.33,418.99 L 210.33,419.83 L 194.33,419.88 L 193.33,420.71 L 192.33,420.83 L 183.33,420.83 L 182.33,421.83 L 180.33,421.97 L 179.33,422.83 L 178.33,422.83 L 177.33,423.83 L 176.33,423.83 L 175.33,424.83 L 174.33,424.83 L 173.33,425.83 L 172.33,425.83 L 171.33,426.83 L 170.33,426.83 L 168.58,428.67 L 167.08,429.00 L 164.58,431.67 L 163.08,432.00 L 155.00,440.08 L 154.67,441.37 L 152.00,444.08 L 151.67,445.58 L 149.83,447.33 L 149.67,448.58 L 147.83,450.33 L 147.67,451.58 L 145.83,453.33 L 147.58,454.00 L 149.33,455.84 L 150.58,456.00 L 152.33,457.84 L 153.33,457.84 L 154.33,458.84 L 155.33,458.84 L 156.33,459.84 L 158.33,459.84 L 159.33,460.84 L 162.33,460.98 L 163.33,461.84 L 166.33,461.84 L 168.33,462.84 L 186.59,462.67 Z M 385.59,462.67 L 386.33,461.84 L 391.33,461.84 L 392.33,460.84 L 395.33,460.84 L 396.33,459.84 L 398.33,459.84 L 399.33,458.84 L 400.33,458.84 L 403.33,456.84 L 404.33,456.84 L 406.33,454.84 L 407.59,454.67 L 408.85,453.33 L 408.84,452.33 L 407.84,451.33 L 407.67,450.08 L 405.84,448.33 L 405.67,447.08 L 403.84,445.33 L 403.67,444.08 L 401.13,441.33 L 400.67,440.08 L 391.59,431.00 L 389.09,429.67 L 387.33,427.83 L 386.09,427.67 L 384.33,425.83 L 383.33,425.83 L 382.33,424.83 L 381.33,424.83 L 380.33,423.83 L 379.33,423.83 L 376.33,421.83 L 374.33,421.83 L 373.33,420.83 L 365.33,420.83 L 362.33,419.83 L 348.33,419.83 L 346.33,418.83 L 335.33,418.83 L 334.33,418.91 L 333.33,419.78 L 325.33,419.83 L 323.33,420.83 L 319.33,420.92 L 318.33,421.83 L 316.33,421.83 L 315.83,422.33 L 316.00,423.39 L 319.67,427.09 L 321.00,429.59 L 324.67,433.09 L 326.00,435.59 L 331.67,441.09 L 334.00,444.59 L 338.08,448.67 L 339.58,449.00 L 342.08,451.67 L 343.33,451.84 L 345.33,453.80 L 346.33,453.84 L 347.33,454.84 L 348.33,454.84 L 349.33,455.84 L 350.33,455.84 L 351.33,456.84 L 352.33,456.84 L 353.33,457.84 L 354.33,457.84 L 355.33,458.76 L 357.33,458.84 L 358.33,459.84 L 360.33,459.84 L 361.33,460.84 L 364.33,460.84 L 365.33,461.84 L 369.33,461.84 L 371.33,462.84 L 385.59,462.67 Z M 247.87,425.67 L 248.39,425.33 L 247.00,424.86 L 246.33,423.87 L 244.95,424.00 L 245.33,424.84 L 246.67,424.76 L 247.08,425.67 L 247.87,425.67 Z M 318.62,444.67 L 318.84,444.33 L 318.00,443.47 L 317.67,442.08 L 315.02,439.33 L 314.67,438.08 L 312.00,435.58 L 310.67,433.08 L 308.84,431.33 L 308.67,430.08 L 306.84,428.33 L 306.84,427.00 L 307.84,426.33 L 307.33,425.83 L 306.67,426.83 L 305.33,426.83 L 303.33,428.74 L 302.08,429.00 L 297.83,433.33 L 299.58,434.00 L 301.33,435.84 L 302.33,435.84 L 303.33,436.84 L 304.33,436.84 L 306.33,438.84 L 307.33,438.84 L 308.33,439.84 L 309.33,439.84 L 310.33,440.84 L 311.33,440.84 L 312.33,441.84 L 313.33,441.84 L 314.33,442.84 L 315.33,442.84 L 316.33,443.84 L 317.67,443.92 L 318.08,444.67 L 318.62,444.67 Z M 238.59,444.67 L 239.00,443.84 L 240.33,443.84 L 241.33,442.84 L 242.33,442.84 L 243.33,441.84 L 244.33,441.84 L 247.33,439.84 L 248.33,439.84 L 249.33,438.84 L 250.33,438.84 L 254.33,435.84 L 255.33,435.84 L 256.33,434.84 L 257.33,434.84 L 258.33,433.84 L 259.33,433.84 L 259.84,433.33 L 256.59,430.00 L 255.30,429.67 L 252.33,426.83 L 251.33,426.83 L 250.67,428.58 L 247.83,431.33 L 247.67,432.58 L 244.00,436.08 L 242.67,438.58 L 240.00,441.08 L 238.83,443.67 L 237.83,444.33 L 238.59,444.67 Z M 279.59,558.67 L 279.67,558.08 L 278.84,557.67 L 278.97,557.00 L 280.00,555.09 L 281.84,553.33 L 282.00,552.09 L 283.70,550.33 L 283.84,549.33 L 284.84,548.33 L 285.00,547.09 L 286.84,545.33 L 286.84,544.33 L 287.84,543.33 L 287.84,542.33 L 288.84,541.33 L 289.84,539.33 L 289.84,538.33 L 290.84,537.33 L 290.84,536.33 L 291.84,535.33 L 291.84,534.33 L 292.71,533.33 L 292.84,531.33 L 293.84,530.33 L 293.84,528.33 L 294.84,527.33 L 294.84,525.33 L 295.84,523.33 L 295.84,520.33 L 296.84,519.33 L 296.84,497.33 L 296.75,496.33 L 295.84,495.33 L 295.84,491.33 L 294.84,490.33 L 294.71,487.33 L 293.84,486.33 L 293.84,484.33 L 292.84,483.33 L 291.84,479.33 L 290.84,478.33 L 290.69,476.33 L 289.84,475.33 L 289.84,474.33 L 288.84,473.33 L 288.84,472.33 L 287.84,471.33 L 287.84,470.33 L 286.84,469.33 L 286.84,468.33 L 285.84,467.33 L 285.84,466.33 L 284.84,465.33 L 284.77,464.33 L 283.06,462.33 L 282.84,461.33 L 281.84,460.33 L 281.84,459.33 L 280.01,457.33 L 278.33,453.83 L 277.67,455.58 L 275.83,457.33 L 275.83,458.33 L 274.83,459.33 L 274.83,460.33 L 272.83,462.33 L 272.83,463.33 L 271.83,464.33 L 271.83,465.33 L 270.83,466.33 L 270.83,467.33 L 269.83,468.33 L 269.83,469.33 L 268.83,470.33 L 268.83,471.33 L 267.83,472.33 L 267.83,473.33 L 266.83,474.33 L 266.83,475.33 L 265.83,476.33 L 265.83,478.33 L 263.83,481.33 L 263.83,483.33 L 262.83,484.33 L 262.83,486.33 L 261.97,487.33 L 261.83,490.33 L 260.83,491.33 L 260.83,495.33 L 259.83,496.33 L 259.83,503.33 L 258.87,505.00 L 258.83,511.33 L 258.99,512.33 L 259.83,513.33 L 259.83,519.33 L 260.83,520.33 L 260.83,524.33 L 261.83,525.33 L 261.83,527.33 L 262.83,528.33 L 262.83,530.33 L 263.83,531.33 L 263.83,533.33 L 264.83,534.33 L 264.83,535.33 L 265.83,536.33 L 265.83,537.33 L 266.82,538.33 L 266.83,539.33 L 268.83,542.33 L 268.83,543.33 L 269.83,544.33 L 269.87,545.33 L 271.83,547.33 L 271.83,548.33 L 273.56,550.33 L 276.00,554.59 L 277.83,556.33 L 278.00,557.59 L 279.59,558.67 Z M 133.59,524.67 L 134.84,523.33 L 134.44,521.67 L 133.33,521.97 L 131.92,523.33 L 132.08,524.67 L 133.59,524.67 Z M 278.59,648.67 L 278.84,646.33 L 279.76,645.33 L 279.84,639.33 L 279.00,638.33 L 278.84,635.33 L 278.33,634.83 L 276.83,637.33 L 276.83,645.33 L 277.83,646.33 L 277.83,648.33 L 278.59,648.67 Z"/></svg>